<?xml version="1.0" encoding="UTF-8"?>
<svg width="208px" height="37px" viewBox="0 0 208 37" version="1.1" xmlns="http://www.w3.org/2000/svg" xmlns:xlink="http://www.w3.org/1999/xlink">
    <title>arena_logo@1x</title>
    <g id="Prod" stroke="none" stroke-width="1" fill="none" fill-rule="evenodd">
        <g id="Game_Spirits" transform="translate(-938.000000, -648.000000)">
            <g id="arena_logo" transform="translate(938.000000, 648.000000)">
                <path d="M60.0055133,12.6476317 L60.0055133,12.6476317 C61.1200431,13.5152274 62.3397173,13.6366907 63.3596172,13.2167745 C64.344469,12.8037989 64.9262675,12.2207747 64.8982291,10.1871305 L64.8877146,0.140373097 L61.0464421,0.140373097 L61.067471,8.72262909 C61.0990143,9.1564269 61.1200431,9.95808527 61.0744806,10.1385452 L49.5927208,0.813627307 C48.4291236,-0.00885335209 47.293565,-0.189313244 46.2596458,0.188958452 C45.1906786,0.567230148 44.6018704,1.41747387 44.7140243,3.21166163 L44.7140243,13.2237152 L48.5938497,13.2237152 L48.5728209,3.95085311 C48.5447824,3.90226776 48.5447824,3.51011453 48.551792,3.4164142 L60.0055133,12.6476317" id="Fill-1" fill="#E83D42"></path>
                <path d="M72.0533001,6.69627273 L72.0533001,6.69627273 C72.0533001,7.62633525 70.9983521,8.37593787 69.7050769,8.37593787 C68.4118018,8.37593787 67.3638634,7.62633525 67.3638634,6.69627273 C67.3638634,5.75926945 68.4118018,5.00966682 69.7050769,5.00966682 C70.9983521,5.00966682 72.0533001,5.75926945 72.0533001,6.69627273" id="Fill-3" fill="#E83D42"></path>
                <path d="M110.934969,2.74454815 L110.934969,2.74454815 L111.919821,2.74454815 C111.94085,2.76537044 112.578725,2.67167011 112.585735,3.20610902 L112.578725,5.44797613 L101.110985,5.44797613 L101.110985,7.90153658 L112.606764,7.90153658 L112.606764,13.2285738 L116.479579,13.2285738 L116.479579,3.09852716 C116.507618,1.94983055 115.992411,1.24534289 115.596367,0.887893493 C114.727174,0.0862351292 113.633673,0.12787972 113.41287,0.148702015 L113.51451,0.14176125 L77.0364399,0.14176125 C75.6730686,0.14176125 74.572558,1.23840213 74.572558,2.61614399 L74.572558,10.7576614 C74.572558,12.1180514 75.6730686,13.2285738 77.0364399,13.2285738 L94.1924882,13.2285738 C95.5523548,13.2285738 96.6844086,12.1111106 96.6844086,10.7437799 L96.677399,5.44103537 L82.8544257,5.44103537 L82.8544257,7.90153658 L92.8431361,7.90153658 L92.8361265,10.6223165 L78.4068209,10.6223165 L78.4068209,2.74454815 L110.934969,2.74454815" id="Fill-5" fill="#FFFFFF"></path>
                <path d="M143.511834,13.257725 L143.511834,13.257725 L163.520798,13.257725 L163.520798,10.6479973 C163.520798,10.6479973 147.261981,10.6896419 147.374135,10.6827011 L147.374135,7.94456932 L159.118756,7.94456932 L159.118756,5.49100888 L143.525853,5.49100888 L143.511834,13.257725" id="Fill-7" fill="#FFFFFF"></path>
                <path d="M162.82264,0.14176125 L162.82264,0.14176125 L121.395777,0.14176125 C120.032406,0.14176125 118.924886,1.24534289 118.924886,2.61614399 L118.924886,10.7576614 C118.924886,12.1180514 120.032406,13.2285738 121.395777,13.2285738 L138.541311,13.2285738 C139.904683,13.2285738 141.040241,12.1111106 141.040241,10.7437799 L141.026222,5.44103537 L127.192734,5.44103537 L127.192734,7.90153658 L137.195464,7.90153658 L137.195464,10.6257869 L122.769663,10.6223165 L122.769663,2.74454815 L162.82264,2.74454815 L162.82264,0.14176125" id="Fill-9" fill="#FFFFFF"></path>
                <path d="M142.6493,28.5218555 L142.6493,28.5218555 L142.6493,21.6886723 L148.316579,21.6886723 L148.323588,28.136643 C146.483563,28.2858695 144.58746,28.4142736 142.6493,28.5218555 L142.6493,28.5218555 Z M169.59078,6.00601364 L169.59078,6.00601364 L168.251942,6.48492643 C190.23061,9.91713475 197.678333,15.0255378 197.678333,19.7244358 C197.678333,24.6107344 187.836824,31.4092137 156.304042,34.5742026 C155.33321,34.6679029 154.341348,34.7511921 153.321448,34.8379517 L153.321448,29.5872629 C172.864273,28.0533538 186.767857,24.0971178 186.767857,19.4398644 C186.767857,15.1747643 175.275583,12.6622073 169.317404,12.3012876 L168.122264,12.6552666 C175.198477,13.6512664 180.196337,16.2193494 180.196337,18.5722688 C180.196337,22.5042122 169.310395,25.9260094 153.321448,27.6542599 L153.321448,22.3688673 C153.321448,20.6440871 152.143832,19.4988609 150.433484,19.4988609 L140.444774,19.4988609 C138.727417,19.4988609 137.5498,20.6440871 137.5498,22.3688673 L137.5498,36.6494914 L142.6493,36.6494914 L142.6493,30.1633464 C144.580451,30.1078203 146.469544,30.0280015 148.323588,29.92389 L148.330598,36.5349687 L153.321448,36.5349687 L153.321448,36.5592614 C157.457125,36.36492 161.308912,36.0942302 164.890829,35.7402511 C197.734409,32.4399174 208,25.3638074 208,20.2588747 C208,14.4772174 196.924798,8.43181103 169.59078,6.00601364 L169.59078,6.00601364 Z M86.680978,28.9903571 L86.680978,28.9903571 L81.5744688,28.9903571 L81.5744688,21.9350694 L86.680978,21.9350694 L86.680978,28.9903571 Z M91.7664583,30.812308 L91.7664583,30.812308 L91.7664583,22.4903307 C91.7664583,20.7759617 90.6379092,19.6272651 88.9065328,19.6272651 L76.646705,19.6272651 L76.646705,37 L81.5744688,37 L81.5744688,30.812308 L84.9986688,30.812308 L86.7160261,37 L91.7944968,37 L90.0841492,30.812308 L91.7664583,30.812308 Z M97.9910021,22.4903307 L97.9910021,22.4903307 L97.9910021,37 L110.524205,37 L110.524205,34.7164883 L102.918766,34.7164883 L102.918766,30.6977853 L109.265978,30.6977853 L109.265978,28.8758345 L102.918766,28.8758345 L102.918766,21.9350694 L110.524205,21.9350694 L110.524205,19.6272651 L100.885976,19.6272651 C99.1686185,19.6272651 97.9910021,20.7759617 97.9910021,22.4903307 L97.9910021,22.4903307 Z M59.6904309,32.5960846 L59.6904309,32.5960846 L59.7044501,29.9724754 L59.6904309,29.9794161 L59.6904309,32.5960846 Z M65.3507001,28.4732701 L65.3507001,28.4732701 C63.4160446,28.3656883 61.519942,28.2234026 59.6764116,28.0672354 L59.6834212,21.6886723 L65.3507001,21.6886723 L65.3507001,28.4732701 Z M67.5622357,19.4988609 L67.5622357,19.4988609 L57.57703,19.4988609 C55.8631776,19.4988609 54.6785516,20.6440871 54.6785516,22.3688673 L54.6785516,27.5813818 C39.1206969,25.8184275 28.5922456,22.4417453 28.5922456,18.5722688 C28.5922456,16.2193494 33.5901056,13.6512664 40.6663184,12.6552666 L39.471178,12.3012876 C33.5200094,12.6622073 22.0137159,15.1747643 22.0137159,19.4398644 C22.0137159,24.0207693 35.5527996,27.945772 54.6785516,29.524796 L54.6785516,34.8379517 C53.6586517,34.7581329 52.6597806,34.6679029 51.6889481,34.5742026 C20.1666807,31.4092137 10.3146579,24.6107344 10.3146579,19.7244358 C10.3146579,15.0255378 17.7623806,9.91713475 39.7515628,6.48492643 L38.4022107,6.00601364 C11.0752018,8.43181103 -1.13818166e-13,14.4772174 -1.13818166e-13,20.2588747 C-1.13818166e-13,25.3638074 10.2620857,32.4399174 43.1126763,35.7402511 C46.691088,36.0942302 50.5393701,36.36492 54.6715419,36.5592614 L54.6715419,36.5349687 L54.6785516,36.5349687 L54.6785516,36.5523207 L59.669402,36.5523207 L59.6764116,29.8787751 C61.5304565,29.9932977 63.4265591,30.0800572 65.3507001,30.1425241 L65.3507001,36.7987178 L70.4922574,36.7987178 L70.4501997,22.3688673 C70.4501997,20.6440871 69.2795929,19.4988609 67.5622357,19.4988609 L67.5622357,19.4988609 Z M126.639325,31.1385239 L126.639325,31.1385239 L121.238411,19.6272651 L116.307143,19.6272651 L116.307143,37 L121.238411,37 L121.238411,26.4465667 L126.639325,37 L131.567088,37 L131.567088,19.6272651 L126.639325,19.6272651 L126.639325,31.1385239 Z" id="Fill-11" fill="#FFFFFF"></path>
            </g>
        </g>
    </g>
</svg>