<?xml version="1.0" encoding="UTF-8"?>
<svg width="1288px" height="87px" viewBox="0 0 1288 87" version="1.1" xmlns="http://www.w3.org/2000/svg" xmlns:xlink="http://www.w3.org/1999/xlink">
    <title>Footer-accelerator</title>
    <defs>
        <polygon id="path-1" points="0 0 1285 0 1285 25 0 25"></polygon>
    </defs>
    <g id="Prod" stroke="none" stroke-width="1" fill="none" fill-rule="evenodd">
        <g id="Home" transform="translate(0.000000, -2767.000000)">
            <g id="Footer-accelerator" transform="translate(0.000000, 2768.000000)">
                <line x1="0" y1="66.5" x2="1287" y2="66.5" id="Stroke-1" stroke="#4F5151" stroke-width="2"></line>
                <path d="M0,56 L135.433476,56 C136.953648,56 139.32097,56.5316667 140.694652,57.1820952 L196.967262,83.8179048 C198.340944,84.4683333 200.708266,85 202.228438,85 L259.811159,85 C261.33133,85 263.730438,84.5387619 265.141433,83.9739524 L294.558137,72.2165238 C295.969133,71.6517143 298.36824,71.1904762 299.888412,71.1904762 L1288,71.1904762" id="Stroke-3" stroke="#FFAA00" stroke-width="2"></path>
                <g id="Group-7" transform="translate(0.000000, 34.000000)">
                    <mask id="mask-2" fill="white">
                        <use xlink:href="#path-1"></use>
                    </mask>
                    <g id="Clip-6"></g>
                    <path d="M125.736185,5.55555556 C127.256078,5.55555556 129.632638,6.07222222 131.015741,6.70555556 L141.183825,11.35 C142.566927,11.9833333 144.942105,12.5 146.461998,12.5 L216.929763,12.5 C218.449656,12.5 220.77371,11.8791667 222.093254,11.1222222 L239.056641,1.37777778 C240.376185,0.620833333 242.698857,0 244.21875,0 L1284.07977,0 C1284.58825,0 1285,0.413888889 1285,0.926388889 L1285,7.52361111 C1285,7.97083333 1284.63937,8.33333333 1284.19446,8.33333333 L255.617948,8.33333333 C254.098055,8.33333333 251.848613,9.06805556 250.620263,9.96666667 L232.291736,23.3666667 C231.062004,24.2652778 228.812563,25 227.29267,25 L164.42437,25 C162.904477,25 160.545879,24.4472222 159.183502,23.7708333 L138.923329,13.7291667 C137.560952,13.0527778 135.200973,12.5 133.68108,12.5 L0.23033287,12.5 C0.103214549,12.5 -0.000414516263,12.3958333 -0.000414516263,12.2680556 L-0.000414516263,6.13472222 C-0.000414516263,5.81527778 0.257967288,5.55555556 0.575763089,5.55555556 L125.736185,5.55555556 Z" id="Fill-5" fill="#EA0800" mask="url(#mask-2)"></path>
                </g>
                <path d="M0,24 L109.155914,24 C110.675806,24 113.015059,24.5809091 114.353946,25.29 L137.810032,37.71 C139.148919,38.4190909 141.488172,39 143.008065,39 L211.403226,39 C212.923118,39 215.144925,38.2418182 216.340113,37.3145455 L231.337306,25.6854545 C232.532495,24.7581818 234.754301,24 236.274194,24 L1285,24" id="Stroke-8" stroke="#4F5151" stroke-width="2"></path>
                <path d="M0,32 L167.188172,32 C168.708065,32 171.048699,31.410087 172.388968,30.688 L226.928237,1.312 C228.268505,0.589913043 230.60914,0 232.129032,0 L292.924731,0 C294.444624,0 296.788022,0.582956522 298.133817,1.29530435 L332.621559,19.5742609 C333.967355,20.2866087 336.310753,20.8695652 337.830645,20.8695652 L1285,20.8695652" id="Stroke-10" stroke="#4F5151" stroke-width="2"></path>
            </g>
        </g>
    </g>
</svg>