<?xml version="1.0" encoding="UTF-8"?>
<svg width="1314px" height="37px" viewBox="0 0 1314 37" version="1.1" xmlns="http://www.w3.org/2000/svg" xmlns:xlink="http://www.w3.org/1999/xlink">
    <title>metal_texture@1x</title>
    <g id="Prod" stroke="none" stroke-width="1" fill="none" fill-rule="evenodd" stroke-linecap="square">
        <g id="Games_AZ" transform="translate(1.000000, -148.000000)" stroke="#494949" stroke-width="0.7">
            <g id="metal_texture" transform="translate(-1.000000, 148.000000)">
                <g id="Group-3" transform="translate(0.606691, 0.000000)">
                    <line x1="15.3964757" y1="-3.69437521" x2="15.2013088" y2="36.8595122" id="Line-3-Copy-3" transform="translate(15.298892, 16.582569) rotate(-315.000000) translate(-15.298892, -16.582569) "></line>
                    <line x1="12.0879504" y1="-3.91916646" x2="12.1014631" y2="27.7805954" id="Line-3-Copy-4" transform="translate(12.094707, 11.930714) rotate(-315.000000) translate(-12.094707, -11.930714) "></line>
                    <line x1="7.88944125" y1="-1.47931603" x2="7.89788665" y2="18.3330351" id="Line-3-Copy-5" transform="translate(7.893664, 8.426860) rotate(-315.000000) translate(-7.893664, -8.426860) "></line>
                    <line x1="4.39068359" y1="-0.730854134" x2="4.39490629" y2="9.17532144" id="Line-3-Copy-6" transform="translate(4.392795, 4.222234) rotate(-315.000000) translate(-4.392795, -4.222234) "></line>
                    <line x1="18.3290569" y1="-5.83531894" x2="18.3081687" y2="43.1668453" id="Line-3-Copy-3" transform="translate(18.318613, 18.665763) rotate(-585.000000) translate(-18.318613, -18.665763) "></line>
                </g>
                <g id="Group-3-Copy" transform="translate(0.000000, 0.827046)">
                    <line x1="21.4186877" y1="-5.37934829" x2="21.4386932" y2="41.552302" id="Line-3-Copy-3" transform="translate(21.428690, 18.086477) rotate(-315.000000) translate(-21.428690, -18.086477) "></line>
                    <line x1="26.6376597" y1="-6.66236524" x2="26.6167716" y2="42.339799" id="Line-3-Copy-3" transform="translate(26.627216, 17.838717) rotate(-585.000000) translate(-26.627216, -17.838717) "></line>
                    <line x1="14.9589866" y1="2.67477635" x2="15.0805186" y2="40.7967912" id="Line-3-Copy-3" transform="translate(15.019753, 21.735784) rotate(-585.000000) translate(-15.019753, -21.735784) "></line>
                    <line x1="11.1057082" y1="11.9774133" x2="11.2318852" y2="39.202635" id="Line-3-Copy-3" transform="translate(11.168797, 25.590024) rotate(-585.000000) translate(-11.168797, -25.590024) "></line>
                    <line x1="7.25242981" y1="21.2800503" x2="7.38325179" y2="37.6084788" id="Line-3-Copy-3" transform="translate(7.317841, 29.444265) rotate(-585.000000) translate(-7.317841, -29.444265) "></line>
                    <line x1="3.04927564" y1="29.736993" x2="3.18432033" y2="36.159246" id="Line-3-Copy-3" transform="translate(3.116798, 32.948119) rotate(-585.000000) translate(-3.116798, -32.948119) "></line>
                </g>
                <g id="Group-3-Copy-2" transform="translate(12.046687, 0.827046)">
                    <line x1="17.0708659" y1="-5.37934829" x2="17.0908715" y2="41.552302" id="Line-3-Copy-3" transform="translate(17.080869, 18.086477) rotate(-315.000000) translate(-17.080869, -18.086477) "></line>
                    <line x1="22.289838" y1="-6.66236524" x2="22.2689499" y2="42.339799" id="Line-3-Copy-3" transform="translate(22.279394, 17.838717) rotate(-585.000000) translate(-22.279394, -17.838717) "></line>
                </g>
                <g id="Group-3-Copy-3" transform="translate(19.745553, 0.827046)">
                    <line x1="17.0708659" y1="-5.37934829" x2="17.0908715" y2="41.552302" id="Line-3-Copy-3" transform="translate(17.080869, 18.086477) rotate(-315.000000) translate(-17.080869, -18.086477) "></line>
                    <line x1="22.289838" y1="-6.66236524" x2="22.2689499" y2="42.339799" id="Line-3-Copy-3" transform="translate(22.279394, 17.838717) rotate(-585.000000) translate(-22.279394, -17.838717) "></line>
                </g>
                <g id="Group-3-Copy-4" transform="translate(27.444418, 0.827046)">
                    <line x1="17.0708659" y1="-5.37934829" x2="17.0908715" y2="41.552302" id="Line-3-Copy-3" transform="translate(17.080869, 18.086477) rotate(-315.000000) translate(-17.080869, -18.086477) "></line>
                    <line x1="22.289838" y1="-6.66236524" x2="22.2689499" y2="42.339799" id="Line-3-Copy-3" transform="translate(22.279394, 17.838717) rotate(-585.000000) translate(-22.279394, -17.838717) "></line>
                </g>
                <g id="Group-3-Copy-5" transform="translate(35.143284, 0.827046)">
                    <line x1="17.0708659" y1="-5.37934829" x2="17.0908715" y2="41.552302" id="Line-3-Copy-3" transform="translate(17.080869, 18.086477) rotate(-315.000000) translate(-17.080869, -18.086477) "></line>
                    <line x1="22.289838" y1="-6.66236524" x2="22.2689499" y2="42.339799" id="Line-3-Copy-3" transform="translate(22.279394, 17.838717) rotate(-585.000000) translate(-22.279394, -17.838717) "></line>
                </g>
                <g id="Group-3-Copy-6" transform="translate(42.842150, 0.827046)">
                    <line x1="17.0708659" y1="-5.37934829" x2="17.0908715" y2="41.552302" id="Line-3-Copy-3" transform="translate(17.080869, 18.086477) rotate(-315.000000) translate(-17.080869, -18.086477) "></line>
                    <line x1="22.289838" y1="-6.66236524" x2="22.2689499" y2="42.339799" id="Line-3-Copy-3" transform="translate(22.279394, 17.838717) rotate(-585.000000) translate(-22.279394, -17.838717) "></line>
                </g>
                <g id="Group-3-Copy-7" transform="translate(50.541015, 0.827046)">
                    <line x1="17.0708659" y1="-5.37934829" x2="17.0908715" y2="41.552302" id="Line-3-Copy-3" transform="translate(17.080869, 18.086477) rotate(-315.000000) translate(-17.080869, -18.086477) "></line>
                    <line x1="22.289838" y1="-6.66236524" x2="22.2689499" y2="42.339799" id="Line-3-Copy-3" transform="translate(22.279394, 17.838717) rotate(-585.000000) translate(-22.279394, -17.838717) "></line>
                </g>
                <g id="Group-3-Copy-8" transform="translate(58.239881, 0.827046)">
                    <line x1="17.0708659" y1="-5.37934829" x2="17.0908715" y2="41.552302" id="Line-3-Copy-3" transform="translate(17.080869, 18.086477) rotate(-315.000000) translate(-17.080869, -18.086477) "></line>
                    <line x1="22.289838" y1="-6.66236524" x2="22.2689499" y2="42.339799" id="Line-3-Copy-3" transform="translate(22.279394, 17.838717) rotate(-585.000000) translate(-22.279394, -17.838717) "></line>
                </g>
                <g id="Group-3-Copy-9" transform="translate(65.938746, 0.827046)">
                    <line x1="17.0708659" y1="-5.37934829" x2="17.0908715" y2="41.552302" id="Line-3-Copy-3" transform="translate(17.080869, 18.086477) rotate(-315.000000) translate(-17.080869, -18.086477) "></line>
                    <line x1="22.289838" y1="-6.66236524" x2="22.2689499" y2="42.339799" id="Line-3-Copy-3" transform="translate(22.279394, 17.838717) rotate(-585.000000) translate(-22.279394, -17.838717) "></line>
                </g>
                <g id="Group-3-Copy-10" transform="translate(73.637612, 0.827046)">
                    <line x1="17.0708659" y1="-5.37934829" x2="17.0908715" y2="41.552302" id="Line-3-Copy-3" transform="translate(17.080869, 18.086477) rotate(-315.000000) translate(-17.080869, -18.086477) "></line>
                    <line x1="22.289838" y1="-6.66236524" x2="22.2689499" y2="42.339799" id="Line-3-Copy-3" transform="translate(22.279394, 17.838717) rotate(-585.000000) translate(-22.279394, -17.838717) "></line>
                </g>
                <g id="Group-3-Copy-11" transform="translate(81.336477, 0.827046)">
                    <line x1="17.0708659" y1="-5.37934829" x2="17.0908715" y2="41.552302" id="Line-3-Copy-3" transform="translate(17.080869, 18.086477) rotate(-315.000000) translate(-17.080869, -18.086477) "></line>
                    <line x1="22.289838" y1="-6.66236524" x2="22.2689499" y2="42.339799" id="Line-3-Copy-3" transform="translate(22.279394, 17.838717) rotate(-585.000000) translate(-22.279394, -17.838717) "></line>
                </g>
                <g id="Group-3-Copy-12" transform="translate(89.035343, 0.827046)">
                    <line x1="17.0708659" y1="-5.37934829" x2="17.0908715" y2="41.552302" id="Line-3-Copy-3" transform="translate(17.080869, 18.086477) rotate(-315.000000) translate(-17.080869, -18.086477) "></line>
                    <line x1="22.289838" y1="-6.66236524" x2="22.2689499" y2="42.339799" id="Line-3-Copy-3" transform="translate(22.279394, 17.838717) rotate(-585.000000) translate(-22.279394, -17.838717) "></line>
                </g>
                <g id="Group-3-Copy-13" transform="translate(96.734208, 0.827046)">
                    <line x1="17.0708659" y1="-5.37934829" x2="17.0908715" y2="41.552302" id="Line-3-Copy-3" transform="translate(17.080869, 18.086477) rotate(-315.000000) translate(-17.080869, -18.086477) "></line>
                    <line x1="22.289838" y1="-6.66236524" x2="22.2689499" y2="42.339799" id="Line-3-Copy-3" transform="translate(22.279394, 17.838717) rotate(-585.000000) translate(-22.279394, -17.838717) "></line>
                </g>
                <g id="Group-3-Copy-14" transform="translate(104.433074, 0.827046)">
                    <line x1="17.0708659" y1="-5.37934829" x2="17.0908715" y2="41.552302" id="Line-3-Copy-3" transform="translate(17.080869, 18.086477) rotate(-315.000000) translate(-17.080869, -18.086477) "></line>
                    <line x1="22.289838" y1="-6.66236524" x2="22.2689499" y2="42.339799" id="Line-3-Copy-3" transform="translate(22.279394, 17.838717) rotate(-585.000000) translate(-22.279394, -17.838717) "></line>
                </g>
                <g id="Group-3-Copy-15" transform="translate(112.131940, 0.827046)">
                    <line x1="17.0708659" y1="-5.37934829" x2="17.0908715" y2="41.552302" id="Line-3-Copy-3" transform="translate(17.080869, 18.086477) rotate(-315.000000) translate(-17.080869, -18.086477) "></line>
                    <line x1="22.289838" y1="-6.66236524" x2="22.2689499" y2="42.339799" id="Line-3-Copy-3" transform="translate(22.279394, 17.838717) rotate(-585.000000) translate(-22.279394, -17.838717) "></line>
                </g>
                <g id="Group-3-Copy-16" transform="translate(119.830805, 0.827046)">
                    <line x1="17.0708659" y1="-5.37934829" x2="17.0908715" y2="41.552302" id="Line-3-Copy-3" transform="translate(17.080869, 18.086477) rotate(-315.000000) translate(-17.080869, -18.086477) "></line>
                    <line x1="22.289838" y1="-6.66236524" x2="22.2689499" y2="42.339799" id="Line-3-Copy-3" transform="translate(22.279394, 17.838717) rotate(-585.000000) translate(-22.279394, -17.838717) "></line>
                </g>
                <g id="Group-3-Copy-17" transform="translate(127.529671, 0.827046)">
                    <line x1="17.0708659" y1="-5.37934829" x2="17.0908715" y2="41.552302" id="Line-3-Copy-3" transform="translate(17.080869, 18.086477) rotate(-315.000000) translate(-17.080869, -18.086477) "></line>
                    <line x1="22.289838" y1="-6.66236524" x2="22.2689499" y2="42.339799" id="Line-3-Copy-3" transform="translate(22.279394, 17.838717) rotate(-585.000000) translate(-22.279394, -17.838717) "></line>
                </g>
                <g id="Group-3-Copy-18" transform="translate(135.228536, 0.827046)">
                    <line x1="17.0708659" y1="-5.37934829" x2="17.0908715" y2="41.552302" id="Line-3-Copy-3" transform="translate(17.080869, 18.086477) rotate(-315.000000) translate(-17.080869, -18.086477) "></line>
                    <line x1="22.289838" y1="-6.66236524" x2="22.2689499" y2="42.339799" id="Line-3-Copy-3" transform="translate(22.279394, 17.838717) rotate(-585.000000) translate(-22.279394, -17.838717) "></line>
                </g>
                <g id="Group-3-Copy-19" transform="translate(142.927402, 0.827046)">
                    <line x1="17.0708659" y1="-5.37934829" x2="17.0908715" y2="41.552302" id="Line-3-Copy-3" transform="translate(17.080869, 18.086477) rotate(-315.000000) translate(-17.080869, -18.086477) "></line>
                    <line x1="22.289838" y1="-6.66236524" x2="22.2689499" y2="42.339799" id="Line-3-Copy-3" transform="translate(22.279394, 17.838717) rotate(-585.000000) translate(-22.279394, -17.838717) "></line>
                </g>
                <g id="Group-3-Copy-20" transform="translate(150.626267, 0.827046)">
                    <line x1="17.0708659" y1="-5.37934829" x2="17.0908715" y2="41.552302" id="Line-3-Copy-3" transform="translate(17.080869, 18.086477) rotate(-315.000000) translate(-17.080869, -18.086477) "></line>
                    <line x1="22.289838" y1="-6.66236524" x2="22.2689499" y2="42.339799" id="Line-3-Copy-3" transform="translate(22.279394, 17.838717) rotate(-585.000000) translate(-22.279394, -17.838717) "></line>
                </g>
                <g id="Group-3-Copy-21" transform="translate(158.325133, 0.827046)">
                    <line x1="17.0708659" y1="-5.37934829" x2="17.0908715" y2="41.552302" id="Line-3-Copy-3" transform="translate(17.080869, 18.086477) rotate(-315.000000) translate(-17.080869, -18.086477) "></line>
                    <line x1="22.289838" y1="-6.66236524" x2="22.2689499" y2="42.339799" id="Line-3-Copy-3" transform="translate(22.279394, 17.838717) rotate(-585.000000) translate(-22.279394, -17.838717) "></line>
                </g>
                <g id="Group-3-Copy-22" transform="translate(166.023999, 0.827046)">
                    <line x1="17.0708659" y1="-5.37934829" x2="17.0908715" y2="41.552302" id="Line-3-Copy-3" transform="translate(17.080869, 18.086477) rotate(-315.000000) translate(-17.080869, -18.086477) "></line>
                    <line x1="22.289838" y1="-6.66236524" x2="22.2689499" y2="42.339799" id="Line-3-Copy-3" transform="translate(22.279394, 17.838717) rotate(-585.000000) translate(-22.279394, -17.838717) "></line>
                </g>
                <g id="Group-3-Copy-23" transform="translate(173.722864, 0.827046)">
                    <line x1="17.0708659" y1="-5.37934829" x2="17.0908715" y2="41.552302" id="Line-3-Copy-3" transform="translate(17.080869, 18.086477) rotate(-315.000000) translate(-17.080869, -18.086477) "></line>
                    <line x1="22.289838" y1="-6.66236524" x2="22.2689499" y2="42.339799" id="Line-3-Copy-3" transform="translate(22.279394, 17.838717) rotate(-585.000000) translate(-22.279394, -17.838717) "></line>
                </g>
                <g id="Group-3-Copy-24" transform="translate(181.421730, 0.827046)">
                    <line x1="17.0708659" y1="-5.37934829" x2="17.0908715" y2="41.552302" id="Line-3-Copy-3" transform="translate(17.080869, 18.086477) rotate(-315.000000) translate(-17.080869, -18.086477) "></line>
                    <line x1="22.289838" y1="-6.66236524" x2="22.2689499" y2="42.339799" id="Line-3-Copy-3" transform="translate(22.279394, 17.838717) rotate(-585.000000) translate(-22.279394, -17.838717) "></line>
                </g>
                <g id="Group-3-Copy-25" transform="translate(189.120595, 0.827046)">
                    <line x1="17.0708659" y1="-5.37934829" x2="17.0908715" y2="41.552302" id="Line-3-Copy-3" transform="translate(17.080869, 18.086477) rotate(-315.000000) translate(-17.080869, -18.086477) "></line>
                    <line x1="22.289838" y1="-6.66236524" x2="22.2689499" y2="42.339799" id="Line-3-Copy-3" transform="translate(22.279394, 17.838717) rotate(-585.000000) translate(-22.279394, -17.838717) "></line>
                </g>
                <g id="Group-3-Copy-26" transform="translate(196.819461, 0.827046)">
                    <line x1="17.0708659" y1="-5.37934829" x2="17.0908715" y2="41.552302" id="Line-3-Copy-3" transform="translate(17.080869, 18.086477) rotate(-315.000000) translate(-17.080869, -18.086477) "></line>
                    <line x1="22.289838" y1="-6.66236524" x2="22.2689499" y2="42.339799" id="Line-3-Copy-3" transform="translate(22.279394, 17.838717) rotate(-585.000000) translate(-22.279394, -17.838717) "></line>
                </g>
                <g id="Group-3-Copy-27" transform="translate(204.518326, 0.827046)">
                    <line x1="17.0708659" y1="-5.37934829" x2="17.0908715" y2="41.552302" id="Line-3-Copy-3" transform="translate(17.080869, 18.086477) rotate(-315.000000) translate(-17.080869, -18.086477) "></line>
                    <line x1="22.289838" y1="-6.66236524" x2="22.2689499" y2="42.339799" id="Line-3-Copy-3" transform="translate(22.279394, 17.838717) rotate(-585.000000) translate(-22.279394, -17.838717) "></line>
                </g>
                <g id="Group-3-Copy-28" transform="translate(212.217192, 0.827046)">
                    <line x1="17.0708659" y1="-5.37934829" x2="17.0908715" y2="41.552302" id="Line-3-Copy-3" transform="translate(17.080869, 18.086477) rotate(-315.000000) translate(-17.080869, -18.086477) "></line>
                    <line x1="22.289838" y1="-6.66236524" x2="22.2689499" y2="42.339799" id="Line-3-Copy-3" transform="translate(22.279394, 17.838717) rotate(-585.000000) translate(-22.279394, -17.838717) "></line>
                </g>
                <g id="Group-3-Copy-29" transform="translate(219.916057, 0.827046)">
                    <line x1="17.0708659" y1="-5.37934829" x2="17.0908715" y2="41.552302" id="Line-3-Copy-3" transform="translate(17.080869, 18.086477) rotate(-315.000000) translate(-17.080869, -18.086477) "></line>
                    <line x1="22.289838" y1="-6.66236524" x2="22.2689499" y2="42.339799" id="Line-3-Copy-3" transform="translate(22.279394, 17.838717) rotate(-585.000000) translate(-22.279394, -17.838717) "></line>
                </g>
                <g id="Group-3-Copy-30" transform="translate(227.614923, 0.827046)">
                    <line x1="17.0708659" y1="-5.37934829" x2="17.0908715" y2="41.552302" id="Line-3-Copy-3" transform="translate(17.080869, 18.086477) rotate(-315.000000) translate(-17.080869, -18.086477) "></line>
                    <line x1="22.289838" y1="-6.66236524" x2="22.2689499" y2="42.339799" id="Line-3-Copy-3" transform="translate(22.279394, 17.838717) rotate(-585.000000) translate(-22.279394, -17.838717) "></line>
                </g>
                <g id="Group-3-Copy-31" transform="translate(235.313789, 0.827046)">
                    <line x1="17.0708659" y1="-5.37934829" x2="17.0908715" y2="41.552302" id="Line-3-Copy-3" transform="translate(17.080869, 18.086477) rotate(-315.000000) translate(-17.080869, -18.086477) "></line>
                    <line x1="22.289838" y1="-6.66236524" x2="22.2689499" y2="42.339799" id="Line-3-Copy-3" transform="translate(22.279394, 17.838717) rotate(-585.000000) translate(-22.279394, -17.838717) "></line>
                </g>
                <g id="Group-3-Copy-32" transform="translate(243.012654, 0.827046)">
                    <line x1="17.0708659" y1="-5.37934829" x2="17.0908715" y2="41.552302" id="Line-3-Copy-3" transform="translate(17.080869, 18.086477) rotate(-315.000000) translate(-17.080869, -18.086477) "></line>
                    <line x1="22.289838" y1="-6.66236524" x2="22.2689499" y2="42.339799" id="Line-3-Copy-3" transform="translate(22.279394, 17.838717) rotate(-585.000000) translate(-22.279394, -17.838717) "></line>
                </g>
                <g id="Group-3-Copy-33" transform="translate(250.711520, 0.827046)">
                    <line x1="17.0708659" y1="-5.37934829" x2="17.0908715" y2="41.552302" id="Line-3-Copy-3" transform="translate(17.080869, 18.086477) rotate(-315.000000) translate(-17.080869, -18.086477) "></line>
                    <line x1="22.289838" y1="-6.66236524" x2="22.2689499" y2="42.339799" id="Line-3-Copy-3" transform="translate(22.279394, 17.838717) rotate(-585.000000) translate(-22.279394, -17.838717) "></line>
                </g>
                <g id="Group-3-Copy-34" transform="translate(258.410385, 0.827046)">
                    <line x1="17.0708659" y1="-5.37934829" x2="17.0908715" y2="41.552302" id="Line-3-Copy-3" transform="translate(17.080869, 18.086477) rotate(-315.000000) translate(-17.080869, -18.086477) "></line>
                    <line x1="22.289838" y1="-6.66236524" x2="22.2689499" y2="42.339799" id="Line-3-Copy-3" transform="translate(22.279394, 17.838717) rotate(-585.000000) translate(-22.279394, -17.838717) "></line>
                </g>
                <g id="Group-3-Copy-35" transform="translate(266.109251, 0.827046)">
                    <line x1="17.0708659" y1="-5.37934829" x2="17.0908715" y2="41.552302" id="Line-3-Copy-3" transform="translate(17.080869, 18.086477) rotate(-315.000000) translate(-17.080869, -18.086477) "></line>
                    <line x1="22.289838" y1="-6.66236524" x2="22.2689499" y2="42.339799" id="Line-3-Copy-3" transform="translate(22.279394, 17.838717) rotate(-585.000000) translate(-22.279394, -17.838717) "></line>
                </g>
                <g id="Group-3-Copy-36" transform="translate(273.808116, 0.827046)">
                    <line x1="17.0708659" y1="-5.37934829" x2="17.0908715" y2="41.552302" id="Line-3-Copy-3" transform="translate(17.080869, 18.086477) rotate(-315.000000) translate(-17.080869, -18.086477) "></line>
                    <line x1="22.289838" y1="-6.66236524" x2="22.2689499" y2="42.339799" id="Line-3-Copy-3" transform="translate(22.279394, 17.838717) rotate(-585.000000) translate(-22.279394, -17.838717) "></line>
                </g>
                <g id="Group-3-Copy-37" transform="translate(281.506982, 0.827046)">
                    <line x1="17.0708659" y1="-5.37934829" x2="17.0908715" y2="41.552302" id="Line-3-Copy-3" transform="translate(17.080869, 18.086477) rotate(-315.000000) translate(-17.080869, -18.086477) "></line>
                    <line x1="22.289838" y1="-6.66236524" x2="22.2689499" y2="42.339799" id="Line-3-Copy-3" transform="translate(22.279394, 17.838717) rotate(-585.000000) translate(-22.279394, -17.838717) "></line>
                </g>
                <g id="Group-3-Copy-38" transform="translate(289.205848, 0.827046)">
                    <line x1="17.0708659" y1="-5.37934829" x2="17.0908715" y2="41.552302" id="Line-3-Copy-3" transform="translate(17.080869, 18.086477) rotate(-315.000000) translate(-17.080869, -18.086477) "></line>
                    <line x1="22.289838" y1="-6.66236524" x2="22.2689499" y2="42.339799" id="Line-3-Copy-3" transform="translate(22.279394, 17.838717) rotate(-585.000000) translate(-22.279394, -17.838717) "></line>
                </g>
                <g id="Group-3-Copy-39" transform="translate(296.904713, 0.827046)">
                    <line x1="17.0708659" y1="-5.37934829" x2="17.0908715" y2="41.552302" id="Line-3-Copy-3" transform="translate(17.080869, 18.086477) rotate(-315.000000) translate(-17.080869, -18.086477) "></line>
                    <line x1="22.289838" y1="-6.66236524" x2="22.2689499" y2="42.339799" id="Line-3-Copy-3" transform="translate(22.279394, 17.838717) rotate(-585.000000) translate(-22.279394, -17.838717) "></line>
                </g>
                <g id="Group-3-Copy-40" transform="translate(304.603579, 0.827046)">
                    <line x1="17.0708659" y1="-5.37934829" x2="17.0908715" y2="41.552302" id="Line-3-Copy-3" transform="translate(17.080869, 18.086477) rotate(-315.000000) translate(-17.080869, -18.086477) "></line>
                    <line x1="22.289838" y1="-6.66236524" x2="22.2689499" y2="42.339799" id="Line-3-Copy-3" transform="translate(22.279394, 17.838717) rotate(-585.000000) translate(-22.279394, -17.838717) "></line>
                </g>
                <g id="Group-3-Copy-41" transform="translate(312.302444, 0.827046)">
                    <line x1="17.0708659" y1="-5.37934829" x2="17.0908715" y2="41.552302" id="Line-3-Copy-3" transform="translate(17.080869, 18.086477) rotate(-315.000000) translate(-17.080869, -18.086477) "></line>
                    <line x1="22.289838" y1="-6.66236524" x2="22.2689499" y2="42.339799" id="Line-3-Copy-3" transform="translate(22.279394, 17.838717) rotate(-585.000000) translate(-22.279394, -17.838717) "></line>
                </g>
                <g id="Group-3-Copy-42" transform="translate(320.001310, 0.827046)">
                    <line x1="17.0708659" y1="-5.37934829" x2="17.0908715" y2="41.552302" id="Line-3-Copy-3" transform="translate(17.080869, 18.086477) rotate(-315.000000) translate(-17.080869, -18.086477) "></line>
                    <line x1="22.289838" y1="-6.66236524" x2="22.2689499" y2="42.339799" id="Line-3-Copy-3" transform="translate(22.279394, 17.838717) rotate(-585.000000) translate(-22.279394, -17.838717) "></line>
                </g>
                <g id="Group-3-Copy-43" transform="translate(327.700175, 0.827046)">
                    <line x1="17.0708659" y1="-5.37934829" x2="17.0908715" y2="41.552302" id="Line-3-Copy-3" transform="translate(17.080869, 18.086477) rotate(-315.000000) translate(-17.080869, -18.086477) "></line>
                    <line x1="22.289838" y1="-6.66236524" x2="22.2689499" y2="42.339799" id="Line-3-Copy-3" transform="translate(22.279394, 17.838717) rotate(-585.000000) translate(-22.279394, -17.838717) "></line>
                </g>
                <g id="Group-3-Copy-44" transform="translate(335.399041, 0.827046)">
                    <line x1="17.0708659" y1="-5.37934829" x2="17.0908715" y2="41.552302" id="Line-3-Copy-3" transform="translate(17.080869, 18.086477) rotate(-315.000000) translate(-17.080869, -18.086477) "></line>
                    <line x1="22.289838" y1="-6.66236524" x2="22.2689499" y2="42.339799" id="Line-3-Copy-3" transform="translate(22.279394, 17.838717) rotate(-585.000000) translate(-22.279394, -17.838717) "></line>
                </g>
                <g id="Group-3-Copy-45" transform="translate(343.097906, 0.827046)">
                    <line x1="17.0708659" y1="-5.37934829" x2="17.0908715" y2="41.552302" id="Line-3-Copy-3" transform="translate(17.080869, 18.086477) rotate(-315.000000) translate(-17.080869, -18.086477) "></line>
                    <line x1="22.289838" y1="-6.66236524" x2="22.2689499" y2="42.339799" id="Line-3-Copy-3" transform="translate(22.279394, 17.838717) rotate(-585.000000) translate(-22.279394, -17.838717) "></line>
                </g>
                <g id="Group-3-Copy-46" transform="translate(350.796772, 0.827046)">
                    <line x1="17.0708659" y1="-5.37934829" x2="17.0908715" y2="41.552302" id="Line-3-Copy-3" transform="translate(17.080869, 18.086477) rotate(-315.000000) translate(-17.080869, -18.086477) "></line>
                    <line x1="22.289838" y1="-6.66236524" x2="22.2689499" y2="42.339799" id="Line-3-Copy-3" transform="translate(22.279394, 17.838717) rotate(-585.000000) translate(-22.279394, -17.838717) "></line>
                </g>
                <g id="Group-3-Copy-47" transform="translate(358.495638, 0.827046)">
                    <line x1="17.0708659" y1="-5.37934829" x2="17.0908715" y2="41.552302" id="Line-3-Copy-3" transform="translate(17.080869, 18.086477) rotate(-315.000000) translate(-17.080869, -18.086477) "></line>
                    <line x1="22.289838" y1="-6.66236524" x2="22.2689499" y2="42.339799" id="Line-3-Copy-3" transform="translate(22.279394, 17.838717) rotate(-585.000000) translate(-22.279394, -17.838717) "></line>
                </g>
                <g id="Group-3-Copy-48" transform="translate(366.194503, 0.827046)">
                    <line x1="17.0708659" y1="-5.37934829" x2="17.0908715" y2="41.552302" id="Line-3-Copy-3" transform="translate(17.080869, 18.086477) rotate(-315.000000) translate(-17.080869, -18.086477) "></line>
                    <line x1="22.289838" y1="-6.66236524" x2="22.2689499" y2="42.339799" id="Line-3-Copy-3" transform="translate(22.279394, 17.838717) rotate(-585.000000) translate(-22.279394, -17.838717) "></line>
                </g>
                <g id="Group-3-Copy-49" transform="translate(373.893369, 0.827046)">
                    <line x1="17.0708659" y1="-5.37934829" x2="17.0908715" y2="41.552302" id="Line-3-Copy-3" transform="translate(17.080869, 18.086477) rotate(-315.000000) translate(-17.080869, -18.086477) "></line>
                    <line x1="22.289838" y1="-6.66236524" x2="22.2689499" y2="42.339799" id="Line-3-Copy-3" transform="translate(22.279394, 17.838717) rotate(-585.000000) translate(-22.279394, -17.838717) "></line>
                </g>
                <g id="Group-3-Copy-50" transform="translate(381.592234, 0.827046)">
                    <line x1="17.0708659" y1="-5.37934829" x2="17.0908715" y2="41.552302" id="Line-3-Copy-3" transform="translate(17.080869, 18.086477) rotate(-315.000000) translate(-17.080869, -18.086477) "></line>
                    <line x1="22.289838" y1="-6.66236524" x2="22.2689499" y2="42.339799" id="Line-3-Copy-3" transform="translate(22.279394, 17.838717) rotate(-585.000000) translate(-22.279394, -17.838717) "></line>
                </g>
                <g id="Group-3-Copy-51" transform="translate(389.291100, 0.827046)">
                    <line x1="17.0708659" y1="-5.37934829" x2="17.0908715" y2="41.552302" id="Line-3-Copy-3" transform="translate(17.080869, 18.086477) rotate(-315.000000) translate(-17.080869, -18.086477) "></line>
                    <line x1="22.289838" y1="-6.66236524" x2="22.2689499" y2="42.339799" id="Line-3-Copy-3" transform="translate(22.279394, 17.838717) rotate(-585.000000) translate(-22.279394, -17.838717) "></line>
                </g>
                <g id="Group-3-Copy-52" transform="translate(396.989965, 0.827046)">
                    <line x1="17.0708659" y1="-5.37934829" x2="17.0908715" y2="41.552302" id="Line-3-Copy-3" transform="translate(17.080869, 18.086477) rotate(-315.000000) translate(-17.080869, -18.086477) "></line>
                    <line x1="22.289838" y1="-6.66236524" x2="22.2689499" y2="42.339799" id="Line-3-Copy-3" transform="translate(22.279394, 17.838717) rotate(-585.000000) translate(-22.279394, -17.838717) "></line>
                </g>
                <g id="Group-3-Copy-53" transform="translate(404.688831, 0.827046)">
                    <line x1="17.0708659" y1="-5.37934829" x2="17.0908715" y2="41.552302" id="Line-3-Copy-3" transform="translate(17.080869, 18.086477) rotate(-315.000000) translate(-17.080869, -18.086477) "></line>
                    <line x1="22.289838" y1="-6.66236524" x2="22.2689499" y2="42.339799" id="Line-3-Copy-3" transform="translate(22.279394, 17.838717) rotate(-585.000000) translate(-22.279394, -17.838717) "></line>
                </g>
                <g id="Group-3-Copy-54" transform="translate(412.387697, 0.827046)">
                    <line x1="17.0708659" y1="-5.37934829" x2="17.0908715" y2="41.552302" id="Line-3-Copy-3" transform="translate(17.080869, 18.086477) rotate(-315.000000) translate(-17.080869, -18.086477) "></line>
                    <line x1="22.289838" y1="-6.66236524" x2="22.2689499" y2="42.339799" id="Line-3-Copy-3" transform="translate(22.279394, 17.838717) rotate(-585.000000) translate(-22.279394, -17.838717) "></line>
                </g>
                <g id="Group-3-Copy-55" transform="translate(420.086562, 0.827046)">
                    <line x1="17.0708659" y1="-5.37934829" x2="17.0908715" y2="41.552302" id="Line-3-Copy-3" transform="translate(17.080869, 18.086477) rotate(-315.000000) translate(-17.080869, -18.086477) "></line>
                    <line x1="22.289838" y1="-6.66236524" x2="22.2689499" y2="42.339799" id="Line-3-Copy-3" transform="translate(22.279394, 17.838717) rotate(-585.000000) translate(-22.279394, -17.838717) "></line>
                </g>
                <g id="Group-3-Copy-56" transform="translate(427.785428, 0.827046)">
                    <line x1="17.0708659" y1="-5.37934829" x2="17.0908715" y2="41.552302" id="Line-3-Copy-3" transform="translate(17.080869, 18.086477) rotate(-315.000000) translate(-17.080869, -18.086477) "></line>
                    <line x1="22.289838" y1="-6.66236524" x2="22.2689499" y2="42.339799" id="Line-3-Copy-3" transform="translate(22.279394, 17.838717) rotate(-585.000000) translate(-22.279394, -17.838717) "></line>
                </g>
                <g id="Group-3-Copy-57" transform="translate(435.484293, 0.827046)">
                    <line x1="17.0708659" y1="-5.37934829" x2="17.0908715" y2="41.552302" id="Line-3-Copy-3" transform="translate(17.080869, 18.086477) rotate(-315.000000) translate(-17.080869, -18.086477) "></line>
                    <line x1="22.289838" y1="-6.66236524" x2="22.2689499" y2="42.339799" id="Line-3-Copy-3" transform="translate(22.279394, 17.838717) rotate(-585.000000) translate(-22.279394, -17.838717) "></line>
                </g>
                <g id="Group-3-Copy-58" transform="translate(443.186205, 0.827046)">
                    <line x1="17.0708659" y1="-5.37934829" x2="17.0908715" y2="41.552302" id="Line-3-Copy-3" transform="translate(17.080869, 18.086477) rotate(-315.000000) translate(-17.080869, -18.086477) "></line>
                    <line x1="22.289838" y1="-6.66236524" x2="22.2689499" y2="42.339799" id="Line-3-Copy-3" transform="translate(22.279394, 17.838717) rotate(-585.000000) translate(-22.279394, -17.838717) "></line>
                </g>
                <g id="Group-3-Copy-59" transform="translate(450.888117, 0.827046)">
                    <line x1="17.0708659" y1="-5.37934829" x2="17.0908715" y2="41.552302" id="Line-3-Copy-3" transform="translate(17.080869, 18.086477) rotate(-315.000000) translate(-17.080869, -18.086477) "></line>
                    <line x1="22.289838" y1="-6.66236524" x2="22.2689499" y2="42.339799" id="Line-3-Copy-3" transform="translate(22.279394, 17.838717) rotate(-585.000000) translate(-22.279394, -17.838717) "></line>
                </g>
                <g id="Group-3-Copy-60" transform="translate(458.590029, 0.827046)">
                    <line x1="17.0708659" y1="-5.37934829" x2="17.0908715" y2="41.552302" id="Line-3-Copy-3" transform="translate(17.080869, 18.086477) rotate(-315.000000) translate(-17.080869, -18.086477) "></line>
                    <line x1="22.289838" y1="-6.66236524" x2="22.2689499" y2="42.339799" id="Line-3-Copy-3" transform="translate(22.279394, 17.838717) rotate(-585.000000) translate(-22.279394, -17.838717) "></line>
                </g>
                <g id="Group-3-Copy-61" transform="translate(466.291940, 0.827046)">
                    <line x1="17.0708659" y1="-5.37934829" x2="17.0908715" y2="41.552302" id="Line-3-Copy-3" transform="translate(17.080869, 18.086477) rotate(-315.000000) translate(-17.080869, -18.086477) "></line>
                    <line x1="22.289838" y1="-6.66236524" x2="22.2689499" y2="42.339799" id="Line-3-Copy-3" transform="translate(22.279394, 17.838717) rotate(-585.000000) translate(-22.279394, -17.838717) "></line>
                </g>
                <g id="Group-3-Copy-62" transform="translate(473.993852, 0.827046)">
                    <line x1="17.0708659" y1="-5.37934829" x2="17.0908715" y2="41.552302" id="Line-3-Copy-3" transform="translate(17.080869, 18.086477) rotate(-315.000000) translate(-17.080869, -18.086477) "></line>
                    <line x1="22.289838" y1="-6.66236524" x2="22.2689499" y2="42.339799" id="Line-3-Copy-3" transform="translate(22.279394, 17.838717) rotate(-585.000000) translate(-22.279394, -17.838717) "></line>
                </g>
                <g id="Group-3-Copy-63" transform="translate(481.695764, 0.827046)">
                    <line x1="17.0708659" y1="-5.37934829" x2="17.0908715" y2="41.552302" id="Line-3-Copy-3" transform="translate(17.080869, 18.086477) rotate(-315.000000) translate(-17.080869, -18.086477) "></line>
                    <line x1="22.289838" y1="-6.66236524" x2="22.2689499" y2="42.339799" id="Line-3-Copy-3" transform="translate(22.279394, 17.838717) rotate(-585.000000) translate(-22.279394, -17.838717) "></line>
                </g>
                <g id="Group-3-Copy-64" transform="translate(489.397676, 0.827046)">
                    <line x1="17.0708659" y1="-5.37934829" x2="17.0908715" y2="41.552302" id="Line-3-Copy-3" transform="translate(17.080869, 18.086477) rotate(-315.000000) translate(-17.080869, -18.086477) "></line>
                    <line x1="22.289838" y1="-6.66236524" x2="22.2689499" y2="42.339799" id="Line-3-Copy-3" transform="translate(22.279394, 17.838717) rotate(-585.000000) translate(-22.279394, -17.838717) "></line>
                </g>
                <g id="Group-3-Copy-65" transform="translate(497.099588, 0.827046)">
                    <line x1="17.0708659" y1="-5.37934829" x2="17.0908715" y2="41.552302" id="Line-3-Copy-3" transform="translate(17.080869, 18.086477) rotate(-315.000000) translate(-17.080869, -18.086477) "></line>
                    <line x1="22.289838" y1="-6.66236524" x2="22.2689499" y2="42.339799" id="Line-3-Copy-3" transform="translate(22.279394, 17.838717) rotate(-585.000000) translate(-22.279394, -17.838717) "></line>
                </g>
                <g id="Group-3-Copy-66" transform="translate(504.801500, 0.827046)">
                    <line x1="17.0708659" y1="-5.37934829" x2="17.0908715" y2="41.552302" id="Line-3-Copy-3" transform="translate(17.080869, 18.086477) rotate(-315.000000) translate(-17.080869, -18.086477) "></line>
                    <line x1="22.289838" y1="-6.66236524" x2="22.2689499" y2="42.339799" id="Line-3-Copy-3" transform="translate(22.279394, 17.838717) rotate(-585.000000) translate(-22.279394, -17.838717) "></line>
                </g>
                <g id="Group-3-Copy-67" transform="translate(512.503411, 0.827046)">
                    <line x1="17.0708659" y1="-5.37934829" x2="17.0908715" y2="41.552302" id="Line-3-Copy-3" transform="translate(17.080869, 18.086477) rotate(-315.000000) translate(-17.080869, -18.086477) "></line>
                    <line x1="22.289838" y1="-6.66236524" x2="22.2689499" y2="42.339799" id="Line-3-Copy-3" transform="translate(22.279394, 17.838717) rotate(-585.000000) translate(-22.279394, -17.838717) "></line>
                </g>
                <g id="Group-3-Copy-68" transform="translate(520.205323, 0.827046)">
                    <line x1="17.0708659" y1="-5.37934829" x2="17.0908715" y2="41.552302" id="Line-3-Copy-3" transform="translate(17.080869, 18.086477) rotate(-315.000000) translate(-17.080869, -18.086477) "></line>
                    <line x1="22.289838" y1="-6.66236524" x2="22.2689499" y2="42.339799" id="Line-3-Copy-3" transform="translate(22.279394, 17.838717) rotate(-585.000000) translate(-22.279394, -17.838717) "></line>
                </g>
                <g id="Group-3-Copy-69" transform="translate(527.907235, 0.827046)">
                    <line x1="17.0708659" y1="-5.37934829" x2="17.0908715" y2="41.552302" id="Line-3-Copy-3" transform="translate(17.080869, 18.086477) rotate(-315.000000) translate(-17.080869, -18.086477) "></line>
                    <line x1="22.289838" y1="-6.66236524" x2="22.2689499" y2="42.339799" id="Line-3-Copy-3" transform="translate(22.279394, 17.838717) rotate(-585.000000) translate(-22.279394, -17.838717) "></line>
                </g>
                <g id="Group-3-Copy-70" transform="translate(535.609147, 0.827046)">
                    <line x1="17.0708659" y1="-5.37934829" x2="17.0908715" y2="41.552302" id="Line-3-Copy-3" transform="translate(17.080869, 18.086477) rotate(-315.000000) translate(-17.080869, -18.086477) "></line>
                    <line x1="22.289838" y1="-6.66236524" x2="22.2689499" y2="42.339799" id="Line-3-Copy-3" transform="translate(22.279394, 17.838717) rotate(-585.000000) translate(-22.279394, -17.838717) "></line>
                </g>
                <g id="Group-3-Copy-71" transform="translate(543.311059, 0.827046)">
                    <line x1="17.0708659" y1="-5.37934829" x2="17.0908715" y2="41.552302" id="Line-3-Copy-3" transform="translate(17.080869, 18.086477) rotate(-315.000000) translate(-17.080869, -18.086477) "></line>
                    <line x1="22.289838" y1="-6.66236524" x2="22.2689499" y2="42.339799" id="Line-3-Copy-3" transform="translate(22.279394, 17.838717) rotate(-585.000000) translate(-22.279394, -17.838717) "></line>
                </g>
                <g id="Group-3-Copy-72" transform="translate(551.012971, 0.827046)">
                    <line x1="17.0708659" y1="-5.37934829" x2="17.0908715" y2="41.552302" id="Line-3-Copy-3" transform="translate(17.080869, 18.086477) rotate(-315.000000) translate(-17.080869, -18.086477) "></line>
                    <line x1="22.289838" y1="-6.66236524" x2="22.2689499" y2="42.339799" id="Line-3-Copy-3" transform="translate(22.279394, 17.838717) rotate(-585.000000) translate(-22.279394, -17.838717) "></line>
                </g>
                <g id="Group-3-Copy-73" transform="translate(558.714882, 0.827046)">
                    <line x1="17.0708659" y1="-5.37934829" x2="17.0908715" y2="41.552302" id="Line-3-Copy-3" transform="translate(17.080869, 18.086477) rotate(-315.000000) translate(-17.080869, -18.086477) "></line>
                    <line x1="22.289838" y1="-6.66236524" x2="22.2689499" y2="42.339799" id="Line-3-Copy-3" transform="translate(22.279394, 17.838717) rotate(-585.000000) translate(-22.279394, -17.838717) "></line>
                </g>
                <g id="Group-3-Copy-74" transform="translate(566.416794, 0.827046)">
                    <line x1="17.0708659" y1="-5.37934829" x2="17.0908715" y2="41.552302" id="Line-3-Copy-3" transform="translate(17.080869, 18.086477) rotate(-315.000000) translate(-17.080869, -18.086477) "></line>
                    <line x1="22.289838" y1="-6.66236524" x2="22.2689499" y2="42.339799" id="Line-3-Copy-3" transform="translate(22.279394, 17.838717) rotate(-585.000000) translate(-22.279394, -17.838717) "></line>
                </g>
                <g id="Group-3-Copy-75" transform="translate(574.118706, 0.827046)">
                    <line x1="17.0708659" y1="-5.37934829" x2="17.0908715" y2="41.552302" id="Line-3-Copy-3" transform="translate(17.080869, 18.086477) rotate(-315.000000) translate(-17.080869, -18.086477) "></line>
                    <line x1="22.289838" y1="-6.66236524" x2="22.2689499" y2="42.339799" id="Line-3-Copy-3" transform="translate(22.279394, 17.838717) rotate(-585.000000) translate(-22.279394, -17.838717) "></line>
                </g>
                <g id="Group-3-Copy-76" transform="translate(581.820618, 0.827046)">
                    <line x1="17.0708659" y1="-5.37934829" x2="17.0908715" y2="41.552302" id="Line-3-Copy-3" transform="translate(17.080869, 18.086477) rotate(-315.000000) translate(-17.080869, -18.086477) "></line>
                    <line x1="22.289838" y1="-6.66236524" x2="22.2689499" y2="42.339799" id="Line-3-Copy-3" transform="translate(22.279394, 17.838717) rotate(-585.000000) translate(-22.279394, -17.838717) "></line>
                </g>
                <g id="Group-3-Copy-77" transform="translate(589.522530, 0.827046)">
                    <line x1="17.0708659" y1="-5.37934829" x2="17.0908715" y2="41.552302" id="Line-3-Copy-3" transform="translate(17.080869, 18.086477) rotate(-315.000000) translate(-17.080869, -18.086477) "></line>
                    <line x1="22.289838" y1="-6.66236524" x2="22.2689499" y2="42.339799" id="Line-3-Copy-3" transform="translate(22.279394, 17.838717) rotate(-585.000000) translate(-22.279394, -17.838717) "></line>
                </g>
                <g id="Group-3-Copy-78" transform="translate(597.224442, 0.827046)">
                    <line x1="17.0708659" y1="-5.37934829" x2="17.0908715" y2="41.552302" id="Line-3-Copy-3" transform="translate(17.080869, 18.086477) rotate(-315.000000) translate(-17.080869, -18.086477) "></line>
                    <line x1="22.289838" y1="-6.66236524" x2="22.2689499" y2="42.339799" id="Line-3-Copy-3" transform="translate(22.279394, 17.838717) rotate(-585.000000) translate(-22.279394, -17.838717) "></line>
                </g>
                <g id="Group-3-Copy-79" transform="translate(604.926353, 0.827046)">
                    <line x1="17.0708659" y1="-5.37934829" x2="17.0908715" y2="41.552302" id="Line-3-Copy-3" transform="translate(17.080869, 18.086477) rotate(-315.000000) translate(-17.080869, -18.086477) "></line>
                    <line x1="22.289838" y1="-6.66236524" x2="22.2689499" y2="42.339799" id="Line-3-Copy-3" transform="translate(22.279394, 17.838717) rotate(-585.000000) translate(-22.279394, -17.838717) "></line>
                </g>
                <g id="Group-3-Copy-80" transform="translate(612.628265, 0.827046)">
                    <line x1="17.0708659" y1="-5.37934829" x2="17.0908715" y2="41.552302" id="Line-3-Copy-3" transform="translate(17.080869, 18.086477) rotate(-315.000000) translate(-17.080869, -18.086477) "></line>
                    <line x1="22.289838" y1="-6.66236524" x2="22.2689499" y2="42.339799" id="Line-3-Copy-3" transform="translate(22.279394, 17.838717) rotate(-585.000000) translate(-22.279394, -17.838717) "></line>
                </g>
                <g id="Group-3-Copy-81" transform="translate(620.330177, 0.827046)">
                    <line x1="17.0708659" y1="-5.37934829" x2="17.0908715" y2="41.552302" id="Line-3-Copy-3" transform="translate(17.080869, 18.086477) rotate(-315.000000) translate(-17.080869, -18.086477) "></line>
                    <line x1="22.289838" y1="-6.66236524" x2="22.2689499" y2="42.339799" id="Line-3-Copy-3" transform="translate(22.279394, 17.838717) rotate(-585.000000) translate(-22.279394, -17.838717) "></line>
                </g>
                <g id="Group-3-Copy-82" transform="translate(628.032089, 0.827046)">
                    <line x1="17.0708659" y1="-5.37934829" x2="17.0908715" y2="41.552302" id="Line-3-Copy-3" transform="translate(17.080869, 18.086477) rotate(-315.000000) translate(-17.080869, -18.086477) "></line>
                    <line x1="22.289838" y1="-6.66236524" x2="22.2689499" y2="42.339799" id="Line-3-Copy-3" transform="translate(22.279394, 17.838717) rotate(-585.000000) translate(-22.279394, -17.838717) "></line>
                </g>
                <g id="Group-3-Copy-83" transform="translate(635.734001, 0.827046)">
                    <line x1="17.0708659" y1="-5.37934829" x2="17.0908715" y2="41.552302" id="Line-3-Copy-3" transform="translate(17.080869, 18.086477) rotate(-315.000000) translate(-17.080869, -18.086477) "></line>
                    <line x1="22.289838" y1="-6.66236524" x2="22.2689499" y2="42.339799" id="Line-3-Copy-3" transform="translate(22.279394, 17.838717) rotate(-585.000000) translate(-22.279394, -17.838717) "></line>
                </g>
                <g id="Group-3-Copy-84" transform="translate(643.435912, 0.827046)">
                    <line x1="17.0708659" y1="-5.37934829" x2="17.0908715" y2="41.552302" id="Line-3-Copy-3" transform="translate(17.080869, 18.086477) rotate(-315.000000) translate(-17.080869, -18.086477) "></line>
                    <line x1="22.289838" y1="-6.66236524" x2="22.2689499" y2="42.339799" id="Line-3-Copy-3" transform="translate(22.279394, 17.838717) rotate(-585.000000) translate(-22.279394, -17.838717) "></line>
                </g>
                <g id="Group-3-Copy-85" transform="translate(651.137824, 0.827046)">
                    <line x1="17.0708659" y1="-5.37934829" x2="17.0908715" y2="41.552302" id="Line-3-Copy-3" transform="translate(17.080869, 18.086477) rotate(-315.000000) translate(-17.080869, -18.086477) "></line>
                    <line x1="22.289838" y1="-6.66236524" x2="22.2689499" y2="42.339799" id="Line-3-Copy-3" transform="translate(22.279394, 17.838717) rotate(-585.000000) translate(-22.279394, -17.838717) "></line>
                </g>
                <g id="Group-3-Copy-86" transform="translate(658.839736, 0.827046)">
                    <line x1="17.0708659" y1="-5.37934829" x2="17.0908715" y2="41.552302" id="Line-3-Copy-3" transform="translate(17.080869, 18.086477) rotate(-315.000000) translate(-17.080869, -18.086477) "></line>
                    <line x1="22.289838" y1="-6.66236524" x2="22.2689499" y2="42.339799" id="Line-3-Copy-3" transform="translate(22.279394, 17.838717) rotate(-585.000000) translate(-22.279394, -17.838717) "></line>
                </g>
                <g id="Group-3-Copy-87" transform="translate(666.541648, 0.827046)">
                    <line x1="17.0708659" y1="-5.37934829" x2="17.0908715" y2="41.552302" id="Line-3-Copy-3" transform="translate(17.080869, 18.086477) rotate(-315.000000) translate(-17.080869, -18.086477) "></line>
                    <line x1="22.289838" y1="-6.66236524" x2="22.2689499" y2="42.339799" id="Line-3-Copy-3" transform="translate(22.279394, 17.838717) rotate(-585.000000) translate(-22.279394, -17.838717) "></line>
                </g>
                <g id="Group-3-Copy-88" transform="translate(674.243560, 0.827046)">
                    <line x1="17.0708659" y1="-5.37934829" x2="17.0908715" y2="41.552302" id="Line-3-Copy-3" transform="translate(17.080869, 18.086477) rotate(-315.000000) translate(-17.080869, -18.086477) "></line>
                    <line x1="22.289838" y1="-6.66236524" x2="22.2689499" y2="42.339799" id="Line-3-Copy-3" transform="translate(22.279394, 17.838717) rotate(-585.000000) translate(-22.279394, -17.838717) "></line>
                </g>
                <g id="Group-3-Copy-89" transform="translate(681.945472, 0.827046)">
                    <line x1="17.0708659" y1="-5.37934829" x2="17.0908715" y2="41.552302" id="Line-3-Copy-3" transform="translate(17.080869, 18.086477) rotate(-315.000000) translate(-17.080869, -18.086477) "></line>
                    <line x1="22.289838" y1="-6.66236524" x2="22.2689499" y2="42.339799" id="Line-3-Copy-3" transform="translate(22.279394, 17.838717) rotate(-585.000000) translate(-22.279394, -17.838717) "></line>
                </g>
                <g id="Group-3-Copy-90" transform="translate(689.647383, 0.827046)">
                    <line x1="17.0708659" y1="-5.37934829" x2="17.0908715" y2="41.552302" id="Line-3-Copy-3" transform="translate(17.080869, 18.086477) rotate(-315.000000) translate(-17.080869, -18.086477) "></line>
                    <line x1="22.289838" y1="-6.66236524" x2="22.2689499" y2="42.339799" id="Line-3-Copy-3" transform="translate(22.279394, 17.838717) rotate(-585.000000) translate(-22.279394, -17.838717) "></line>
                </g>
                <g id="Group-3-Copy-91" transform="translate(697.349295, 0.827046)">
                    <line x1="17.0708659" y1="-5.37934829" x2="17.0908715" y2="41.552302" id="Line-3-Copy-3" transform="translate(17.080869, 18.086477) rotate(-315.000000) translate(-17.080869, -18.086477) "></line>
                    <line x1="22.289838" y1="-6.66236524" x2="22.2689499" y2="42.339799" id="Line-3-Copy-3" transform="translate(22.279394, 17.838717) rotate(-585.000000) translate(-22.279394, -17.838717) "></line>
                </g>
                <g id="Group-3-Copy-92" transform="translate(705.051207, 0.827046)">
                    <line x1="17.0708659" y1="-5.37934829" x2="17.0908715" y2="41.552302" id="Line-3-Copy-3" transform="translate(17.080869, 18.086477) rotate(-315.000000) translate(-17.080869, -18.086477) "></line>
                    <line x1="22.289838" y1="-6.66236524" x2="22.2689499" y2="42.339799" id="Line-3-Copy-3" transform="translate(22.279394, 17.838717) rotate(-585.000000) translate(-22.279394, -17.838717) "></line>
                </g>
                <g id="Group-3-Copy-93" transform="translate(712.753119, 0.827046)">
                    <line x1="17.0708659" y1="-5.37934829" x2="17.0908715" y2="41.552302" id="Line-3-Copy-3" transform="translate(17.080869, 18.086477) rotate(-315.000000) translate(-17.080869, -18.086477) "></line>
                    <line x1="22.289838" y1="-6.66236524" x2="22.2689499" y2="42.339799" id="Line-3-Copy-3" transform="translate(22.279394, 17.838717) rotate(-585.000000) translate(-22.279394, -17.838717) "></line>
                </g>
                <g id="Group-3-Copy-94" transform="translate(720.455031, 0.827046)">
                    <line x1="17.0708659" y1="-5.37934829" x2="17.0908715" y2="41.552302" id="Line-3-Copy-3" transform="translate(17.080869, 18.086477) rotate(-315.000000) translate(-17.080869, -18.086477) "></line>
                    <line x1="22.289838" y1="-6.66236524" x2="22.2689499" y2="42.339799" id="Line-3-Copy-3" transform="translate(22.279394, 17.838717) rotate(-585.000000) translate(-22.279394, -17.838717) "></line>
                </g>
                <g id="Group-3-Copy-95" transform="translate(728.156943, 0.827046)">
                    <line x1="17.0708659" y1="-5.37934829" x2="17.0908715" y2="41.552302" id="Line-3-Copy-3" transform="translate(17.080869, 18.086477) rotate(-315.000000) translate(-17.080869, -18.086477) "></line>
                    <line x1="22.289838" y1="-6.66236524" x2="22.2689499" y2="42.339799" id="Line-3-Copy-3" transform="translate(22.279394, 17.838717) rotate(-585.000000) translate(-22.279394, -17.838717) "></line>
                </g>
                <g id="Group-3-Copy-96" transform="translate(735.858854, 0.827046)">
                    <line x1="17.0708659" y1="-5.37934829" x2="17.0908715" y2="41.552302" id="Line-3-Copy-3" transform="translate(17.080869, 18.086477) rotate(-315.000000) translate(-17.080869, -18.086477) "></line>
                    <line x1="22.289838" y1="-6.66236524" x2="22.2689499" y2="42.339799" id="Line-3-Copy-3" transform="translate(22.279394, 17.838717) rotate(-585.000000) translate(-22.279394, -17.838717) "></line>
                </g>
                <g id="Group-3-Copy-97" transform="translate(743.560766, 0.827046)">
                    <line x1="17.0708659" y1="-5.37934829" x2="17.0908715" y2="41.552302" id="Line-3-Copy-3" transform="translate(17.080869, 18.086477) rotate(-315.000000) translate(-17.080869, -18.086477) "></line>
                    <line x1="22.289838" y1="-6.66236524" x2="22.2689499" y2="42.339799" id="Line-3-Copy-3" transform="translate(22.279394, 17.838717) rotate(-585.000000) translate(-22.279394, -17.838717) "></line>
                </g>
                <g id="Group-3-Copy-98" transform="translate(751.262678, 0.827046)">
                    <line x1="17.0708659" y1="-5.37934829" x2="17.0908715" y2="41.552302" id="Line-3-Copy-3" transform="translate(17.080869, 18.086477) rotate(-315.000000) translate(-17.080869, -18.086477) "></line>
                    <line x1="22.289838" y1="-6.66236524" x2="22.2689499" y2="42.339799" id="Line-3-Copy-3" transform="translate(22.279394, 17.838717) rotate(-585.000000) translate(-22.279394, -17.838717) "></line>
                </g>
                <g id="Group-3-Copy-99" transform="translate(758.964590, 0.827046)">
                    <line x1="17.0708659" y1="-5.37934829" x2="17.0908715" y2="41.552302" id="Line-3-Copy-3" transform="translate(17.080869, 18.086477) rotate(-315.000000) translate(-17.080869, -18.086477) "></line>
                    <line x1="22.289838" y1="-6.66236524" x2="22.2689499" y2="42.339799" id="Line-3-Copy-3" transform="translate(22.279394, 17.838717) rotate(-585.000000) translate(-22.279394, -17.838717) "></line>
                </g>
                <g id="Group-3-Copy-100" transform="translate(766.666502, 0.827046)">
                    <line x1="17.0708659" y1="-5.37934829" x2="17.0908715" y2="41.552302" id="Line-3-Copy-3" transform="translate(17.080869, 18.086477) rotate(-315.000000) translate(-17.080869, -18.086477) "></line>
                    <line x1="22.289838" y1="-6.66236524" x2="22.2689499" y2="42.339799" id="Line-3-Copy-3" transform="translate(22.279394, 17.838717) rotate(-585.000000) translate(-22.279394, -17.838717) "></line>
                </g>
                <g id="Group-3-Copy-101" transform="translate(774.368413, 0.827046)">
                    <line x1="17.0708659" y1="-5.37934829" x2="17.0908715" y2="41.552302" id="Line-3-Copy-3" transform="translate(17.080869, 18.086477) rotate(-315.000000) translate(-17.080869, -18.086477) "></line>
                    <line x1="22.289838" y1="-6.66236524" x2="22.2689499" y2="42.339799" id="Line-3-Copy-3" transform="translate(22.279394, 17.838717) rotate(-585.000000) translate(-22.279394, -17.838717) "></line>
                </g>
                <g id="Group-3-Copy-102" transform="translate(782.070325, 0.827046)">
                    <line x1="17.0708659" y1="-5.37934829" x2="17.0908715" y2="41.552302" id="Line-3-Copy-3" transform="translate(17.080869, 18.086477) rotate(-315.000000) translate(-17.080869, -18.086477) "></line>
                    <line x1="22.289838" y1="-6.66236524" x2="22.2689499" y2="42.339799" id="Line-3-Copy-3" transform="translate(22.279394, 17.838717) rotate(-585.000000) translate(-22.279394, -17.838717) "></line>
                </g>
                <g id="Group-3-Copy-103" transform="translate(789.772237, 0.827046)">
                    <line x1="17.0708659" y1="-5.37934829" x2="17.0908715" y2="41.552302" id="Line-3-Copy-3" transform="translate(17.080869, 18.086477) rotate(-315.000000) translate(-17.080869, -18.086477) "></line>
                    <line x1="22.289838" y1="-6.66236524" x2="22.2689499" y2="42.339799" id="Line-3-Copy-3" transform="translate(22.279394, 17.838717) rotate(-585.000000) translate(-22.279394, -17.838717) "></line>
                </g>
                <g id="Group-3-Copy-104" transform="translate(797.474149, 0.827046)">
                    <line x1="17.0708659" y1="-5.37934829" x2="17.0908715" y2="41.552302" id="Line-3-Copy-3" transform="translate(17.080869, 18.086477) rotate(-315.000000) translate(-17.080869, -18.086477) "></line>
                    <line x1="22.289838" y1="-6.66236524" x2="22.2689499" y2="42.339799" id="Line-3-Copy-3" transform="translate(22.279394, 17.838717) rotate(-585.000000) translate(-22.279394, -17.838717) "></line>
                </g>
                <g id="Group-3-Copy-105" transform="translate(805.176061, 0.827046)">
                    <line x1="17.0708659" y1="-5.37934829" x2="17.0908715" y2="41.552302" id="Line-3-Copy-3" transform="translate(17.080869, 18.086477) rotate(-315.000000) translate(-17.080869, -18.086477) "></line>
                    <line x1="22.289838" y1="-6.66236524" x2="22.2689499" y2="42.339799" id="Line-3-Copy-3" transform="translate(22.279394, 17.838717) rotate(-585.000000) translate(-22.279394, -17.838717) "></line>
                </g>
                <g id="Group-3-Copy-106" transform="translate(812.877973, 0.827046)">
                    <line x1="17.0708659" y1="-5.37934829" x2="17.0908715" y2="41.552302" id="Line-3-Copy-3" transform="translate(17.080869, 18.086477) rotate(-315.000000) translate(-17.080869, -18.086477) "></line>
                    <line x1="22.289838" y1="-6.66236524" x2="22.2689499" y2="42.339799" id="Line-3-Copy-3" transform="translate(22.279394, 17.838717) rotate(-585.000000) translate(-22.279394, -17.838717) "></line>
                </g>
                <g id="Group-3-Copy-107" transform="translate(820.579884, 0.827046)">
                    <line x1="17.0708659" y1="-5.37934829" x2="17.0908715" y2="41.552302" id="Line-3-Copy-3" transform="translate(17.080869, 18.086477) rotate(-315.000000) translate(-17.080869, -18.086477) "></line>
                    <line x1="22.289838" y1="-6.66236524" x2="22.2689499" y2="42.339799" id="Line-3-Copy-3" transform="translate(22.279394, 17.838717) rotate(-585.000000) translate(-22.279394, -17.838717) "></line>
                </g>
                <g id="Group-3-Copy-108" transform="translate(828.281796, 0.827046)">
                    <line x1="17.0708659" y1="-5.37934829" x2="17.0908715" y2="41.552302" id="Line-3-Copy-3" transform="translate(17.080869, 18.086477) rotate(-315.000000) translate(-17.080869, -18.086477) "></line>
                    <line x1="22.289838" y1="-6.66236524" x2="22.2689499" y2="42.339799" id="Line-3-Copy-3" transform="translate(22.279394, 17.838717) rotate(-585.000000) translate(-22.279394, -17.838717) "></line>
                </g>
                <g id="Group-3-Copy-109" transform="translate(835.983708, 0.827046)">
                    <line x1="17.0708659" y1="-5.37934829" x2="17.0908715" y2="41.552302" id="Line-3-Copy-3" transform="translate(17.080869, 18.086477) rotate(-315.000000) translate(-17.080869, -18.086477) "></line>
                    <line x1="22.289838" y1="-6.66236524" x2="22.2689499" y2="42.339799" id="Line-3-Copy-3" transform="translate(22.279394, 17.838717) rotate(-585.000000) translate(-22.279394, -17.838717) "></line>
                </g>
                <g id="Group-3-Copy-110" transform="translate(843.685620, 0.827046)">
                    <line x1="17.0708659" y1="-5.37934829" x2="17.0908715" y2="41.552302" id="Line-3-Copy-3" transform="translate(17.080869, 18.086477) rotate(-315.000000) translate(-17.080869, -18.086477) "></line>
                    <line x1="22.289838" y1="-6.66236524" x2="22.2689499" y2="42.339799" id="Line-3-Copy-3" transform="translate(22.279394, 17.838717) rotate(-585.000000) translate(-22.279394, -17.838717) "></line>
                </g>
                <g id="Group-3-Copy-111" transform="translate(851.387532, 0.827046)">
                    <line x1="17.0708659" y1="-5.37934829" x2="17.0908715" y2="41.552302" id="Line-3-Copy-3" transform="translate(17.080869, 18.086477) rotate(-315.000000) translate(-17.080869, -18.086477) "></line>
                    <line x1="22.289838" y1="-6.66236524" x2="22.2689499" y2="42.339799" id="Line-3-Copy-3" transform="translate(22.279394, 17.838717) rotate(-585.000000) translate(-22.279394, -17.838717) "></line>
                </g>
                <g id="Group-3-Copy-112" transform="translate(859.089444, 0.827046)">
                    <line x1="17.0708659" y1="-5.37934829" x2="17.0908715" y2="41.552302" id="Line-3-Copy-3" transform="translate(17.080869, 18.086477) rotate(-315.000000) translate(-17.080869, -18.086477) "></line>
                    <line x1="22.289838" y1="-6.66236524" x2="22.2689499" y2="42.339799" id="Line-3-Copy-3" transform="translate(22.279394, 17.838717) rotate(-585.000000) translate(-22.279394, -17.838717) "></line>
                </g>
                <g id="Group-3-Copy-113" transform="translate(866.791355, 0.827046)">
                    <line x1="17.0708659" y1="-5.37934829" x2="17.0908715" y2="41.552302" id="Line-3-Copy-3" transform="translate(17.080869, 18.086477) rotate(-315.000000) translate(-17.080869, -18.086477) "></line>
                    <line x1="22.289838" y1="-6.66236524" x2="22.2689499" y2="42.339799" id="Line-3-Copy-3" transform="translate(22.279394, 17.838717) rotate(-585.000000) translate(-22.279394, -17.838717) "></line>
                </g>
                <g id="Group-3-Copy-114" transform="translate(874.493267, 0.827046)">
                    <line x1="17.0708659" y1="-5.37934829" x2="17.0908715" y2="41.552302" id="Line-3-Copy-3" transform="translate(17.080869, 18.086477) rotate(-315.000000) translate(-17.080869, -18.086477) "></line>
                    <line x1="22.289838" y1="-6.66236524" x2="22.2689499" y2="42.339799" id="Line-3-Copy-3" transform="translate(22.279394, 17.838717) rotate(-585.000000) translate(-22.279394, -17.838717) "></line>
                </g>
                <g id="Group-3-Copy-115" transform="translate(882.195179, 0.827046)">
                    <line x1="17.0708659" y1="-5.37934829" x2="17.0908715" y2="41.552302" id="Line-3-Copy-3" transform="translate(17.080869, 18.086477) rotate(-315.000000) translate(-17.080869, -18.086477) "></line>
                    <line x1="22.289838" y1="-6.66236524" x2="22.2689499" y2="42.339799" id="Line-3-Copy-3" transform="translate(22.279394, 17.838717) rotate(-585.000000) translate(-22.279394, -17.838717) "></line>
                </g>
                <g id="Group-3-Copy-116" transform="translate(889.897091, 0.827046)">
                    <line x1="17.0708659" y1="-5.37934829" x2="17.0908715" y2="41.552302" id="Line-3-Copy-3" transform="translate(17.080869, 18.086477) rotate(-315.000000) translate(-17.080869, -18.086477) "></line>
                    <line x1="22.289838" y1="-6.66236524" x2="22.2689499" y2="42.339799" id="Line-3-Copy-3" transform="translate(22.279394, 17.838717) rotate(-585.000000) translate(-22.279394, -17.838717) "></line>
                </g>
                <g id="Group-3-Copy-117" transform="translate(897.897091, 0.827046)">
                    <line x1="17.0708659" y1="-5.37934829" x2="17.0908715" y2="41.552302" id="Line-3-Copy-3" transform="translate(17.080869, 18.086477) rotate(-315.000000) translate(-17.080869, -18.086477) "></line>
                    <line x1="22.289838" y1="-6.66236524" x2="22.2689499" y2="42.339799" id="Line-3-Copy-3" transform="translate(22.279394, 17.838717) rotate(-585.000000) translate(-22.279394, -17.838717) "></line>
                </g>
                <g id="Group-3-Copy-118" transform="translate(905.897091, 0.827046)">
                    <line x1="17.0708659" y1="-5.37934829" x2="17.0908715" y2="41.552302" id="Line-3-Copy-3" transform="translate(17.080869, 18.086477) rotate(-315.000000) translate(-17.080869, -18.086477) "></line>
                    <line x1="22.289838" y1="-6.66236524" x2="22.2689499" y2="42.339799" id="Line-3-Copy-3" transform="translate(22.279394, 17.838717) rotate(-585.000000) translate(-22.279394, -17.838717) "></line>
                </g>
                <g id="Group-3-Copy-119" transform="translate(913.897091, 0.827046)">
                    <line x1="17.0708659" y1="-5.37934829" x2="17.0908715" y2="41.552302" id="Line-3-Copy-3" transform="translate(17.080869, 18.086477) rotate(-315.000000) translate(-17.080869, -18.086477) "></line>
                    <line x1="22.289838" y1="-6.66236524" x2="22.2689499" y2="42.339799" id="Line-3-Copy-3" transform="translate(22.279394, 17.838717) rotate(-585.000000) translate(-22.279394, -17.838717) "></line>
                </g>
                <g id="Group-3-Copy-120" transform="translate(921.897091, 0.827046)">
                    <line x1="17.0708659" y1="-5.37934829" x2="17.0908715" y2="41.552302" id="Line-3-Copy-3" transform="translate(17.080869, 18.086477) rotate(-315.000000) translate(-17.080869, -18.086477) "></line>
                    <line x1="22.289838" y1="-6.66236524" x2="22.2689499" y2="42.339799" id="Line-3-Copy-3" transform="translate(22.279394, 17.838717) rotate(-585.000000) translate(-22.279394, -17.838717) "></line>
                </g>
                <g id="Group-3-Copy-121" transform="translate(929.897091, 0.827046)">
                    <line x1="17.0708659" y1="-5.37934829" x2="17.0908715" y2="41.552302" id="Line-3-Copy-3" transform="translate(17.080869, 18.086477) rotate(-315.000000) translate(-17.080869, -18.086477) "></line>
                    <line x1="22.289838" y1="-6.66236524" x2="22.2689499" y2="42.339799" id="Line-3-Copy-3" transform="translate(22.279394, 17.838717) rotate(-585.000000) translate(-22.279394, -17.838717) "></line>
                </g>
                <g id="Group-3-Copy-122" transform="translate(937.897091, 0.827046)">
                    <line x1="17.0708659" y1="-5.37934829" x2="17.0908715" y2="41.552302" id="Line-3-Copy-3" transform="translate(17.080869, 18.086477) rotate(-315.000000) translate(-17.080869, -18.086477) "></line>
                    <line x1="22.289838" y1="-6.66236524" x2="22.2689499" y2="42.339799" id="Line-3-Copy-3" transform="translate(22.279394, 17.838717) rotate(-585.000000) translate(-22.279394, -17.838717) "></line>
                </g>
                <g id="Group-3-Copy-123" transform="translate(945.897091, 0.827046)">
                    <line x1="17.0708659" y1="-5.37934829" x2="17.0908715" y2="41.552302" id="Line-3-Copy-3" transform="translate(17.080869, 18.086477) rotate(-315.000000) translate(-17.080869, -18.086477) "></line>
                    <line x1="22.289838" y1="-6.66236524" x2="22.2689499" y2="42.339799" id="Line-3-Copy-3" transform="translate(22.279394, 17.838717) rotate(-585.000000) translate(-22.279394, -17.838717) "></line>
                </g>
                <g id="Group-3-Copy-124" transform="translate(953.897091, 0.827046)">
                    <line x1="17.0708659" y1="-5.37934829" x2="17.0908715" y2="41.552302" id="Line-3-Copy-3" transform="translate(17.080869, 18.086477) rotate(-315.000000) translate(-17.080869, -18.086477) "></line>
                    <line x1="22.289838" y1="-6.66236524" x2="22.2689499" y2="42.339799" id="Line-3-Copy-3" transform="translate(22.279394, 17.838717) rotate(-585.000000) translate(-22.279394, -17.838717) "></line>
                </g>
                <g id="Group-3-Copy-125" transform="translate(961.897091, 0.827046)">
                    <line x1="17.0708659" y1="-5.37934829" x2="17.0908715" y2="41.552302" id="Line-3-Copy-3" transform="translate(17.080869, 18.086477) rotate(-315.000000) translate(-17.080869, -18.086477) "></line>
                    <line x1="22.289838" y1="-6.66236524" x2="22.2689499" y2="42.339799" id="Line-3-Copy-3" transform="translate(22.279394, 17.838717) rotate(-585.000000) translate(-22.279394, -17.838717) "></line>
                </g>
                <g id="Group-3-Copy-126" transform="translate(969.897091, 0.827046)">
                    <line x1="17.0708659" y1="-5.37934829" x2="17.0908715" y2="41.552302" id="Line-3-Copy-3" transform="translate(17.080869, 18.086477) rotate(-315.000000) translate(-17.080869, -18.086477) "></line>
                    <line x1="22.289838" y1="-6.66236524" x2="22.2689499" y2="42.339799" id="Line-3-Copy-3" transform="translate(22.279394, 17.838717) rotate(-585.000000) translate(-22.279394, -17.838717) "></line>
                </g>
                <g id="Group-3-Copy-127" transform="translate(977.897091, 0.827046)">
                    <line x1="17.0708659" y1="-5.37934829" x2="17.0908715" y2="41.552302" id="Line-3-Copy-3" transform="translate(17.080869, 18.086477) rotate(-315.000000) translate(-17.080869, -18.086477) "></line>
                    <line x1="22.289838" y1="-6.66236524" x2="22.2689499" y2="42.339799" id="Line-3-Copy-3" transform="translate(22.279394, 17.838717) rotate(-585.000000) translate(-22.279394, -17.838717) "></line>
                </g>
                <g id="Group-3-Copy-128" transform="translate(985.897091, 0.827046)">
                    <line x1="17.0708659" y1="-5.37934829" x2="17.0908715" y2="41.552302" id="Line-3-Copy-3" transform="translate(17.080869, 18.086477) rotate(-315.000000) translate(-17.080869, -18.086477) "></line>
                    <line x1="22.289838" y1="-6.66236524" x2="22.2689499" y2="42.339799" id="Line-3-Copy-3" transform="translate(22.279394, 17.838717) rotate(-585.000000) translate(-22.279394, -17.838717) "></line>
                </g>
                <g id="Group-3-Copy-129" transform="translate(993.897091, 0.827046)">
                    <line x1="17.0708659" y1="-5.37934829" x2="17.0908715" y2="41.552302" id="Line-3-Copy-3" transform="translate(17.080869, 18.086477) rotate(-315.000000) translate(-17.080869, -18.086477) "></line>
                    <line x1="22.289838" y1="-6.66236524" x2="22.2689499" y2="42.339799" id="Line-3-Copy-3" transform="translate(22.279394, 17.838717) rotate(-585.000000) translate(-22.279394, -17.838717) "></line>
                </g>
                <g id="Group-3-Copy-130" transform="translate(1001.897091, 0.827046)">
                    <line x1="17.0708659" y1="-5.37934829" x2="17.0908715" y2="41.552302" id="Line-3-Copy-3" transform="translate(17.080869, 18.086477) rotate(-315.000000) translate(-17.080869, -18.086477) "></line>
                    <line x1="22.289838" y1="-6.66236524" x2="22.2689499" y2="42.339799" id="Line-3-Copy-3" transform="translate(22.279394, 17.838717) rotate(-585.000000) translate(-22.279394, -17.838717) "></line>
                </g>
                <g id="Group-3-Copy-131" transform="translate(1009.897091, 0.827046)">
                    <line x1="17.0708659" y1="-5.37934829" x2="17.0908715" y2="41.552302" id="Line-3-Copy-3" transform="translate(17.080869, 18.086477) rotate(-315.000000) translate(-17.080869, -18.086477) "></line>
                    <line x1="22.289838" y1="-6.66236524" x2="22.2689499" y2="42.339799" id="Line-3-Copy-3" transform="translate(22.279394, 17.838717) rotate(-585.000000) translate(-22.279394, -17.838717) "></line>
                </g>
                <g id="Group-3-Copy-132" transform="translate(1017.897091, 0.827046)">
                    <line x1="17.0708659" y1="-5.37934829" x2="17.0908715" y2="41.552302" id="Line-3-Copy-3" transform="translate(17.080869, 18.086477) rotate(-315.000000) translate(-17.080869, -18.086477) "></line>
                    <line x1="22.289838" y1="-6.66236524" x2="22.2689499" y2="42.339799" id="Line-3-Copy-3" transform="translate(22.279394, 17.838717) rotate(-585.000000) translate(-22.279394, -17.838717) "></line>
                </g>
                <g id="Group-3-Copy-133" transform="translate(1025.897091, 0.827046)">
                    <line x1="17.0708659" y1="-5.37934829" x2="17.0908715" y2="41.552302" id="Line-3-Copy-3" transform="translate(17.080869, 18.086477) rotate(-315.000000) translate(-17.080869, -18.086477) "></line>
                    <line x1="22.289838" y1="-6.66236524" x2="22.2689499" y2="42.339799" id="Line-3-Copy-3" transform="translate(22.279394, 17.838717) rotate(-585.000000) translate(-22.279394, -17.838717) "></line>
                </g>
                <g id="Group-3-Copy-134" transform="translate(1033.897091, 0.827046)">
                    <line x1="17.0708659" y1="-5.37934829" x2="17.0908715" y2="41.552302" id="Line-3-Copy-3" transform="translate(17.080869, 18.086477) rotate(-315.000000) translate(-17.080869, -18.086477) "></line>
                    <line x1="22.289838" y1="-6.66236524" x2="22.2689499" y2="42.339799" id="Line-3-Copy-3" transform="translate(22.279394, 17.838717) rotate(-585.000000) translate(-22.279394, -17.838717) "></line>
                </g>
                <g id="Group-3-Copy-135" transform="translate(1041.897091, 0.827046)">
                    <line x1="17.0708659" y1="-5.37934829" x2="17.0908715" y2="41.552302" id="Line-3-Copy-3" transform="translate(17.080869, 18.086477) rotate(-315.000000) translate(-17.080869, -18.086477) "></line>
                    <line x1="22.289838" y1="-6.66236524" x2="22.2689499" y2="42.339799" id="Line-3-Copy-3" transform="translate(22.279394, 17.838717) rotate(-585.000000) translate(-22.279394, -17.838717) "></line>
                </g>
                <g id="Group-3-Copy-136" transform="translate(1049.897091, 0.827046)">
                    <line x1="17.0708659" y1="-5.37934829" x2="17.0908715" y2="41.552302" id="Line-3-Copy-3" transform="translate(17.080869, 18.086477) rotate(-315.000000) translate(-17.080869, -18.086477) "></line>
                    <line x1="22.289838" y1="-6.66236524" x2="22.2689499" y2="42.339799" id="Line-3-Copy-3" transform="translate(22.279394, 17.838717) rotate(-585.000000) translate(-22.279394, -17.838717) "></line>
                </g>
                <g id="Group-3-Copy-137" transform="translate(1057.897091, 0.827046)">
                    <line x1="17.0708659" y1="-5.37934829" x2="17.0908715" y2="41.552302" id="Line-3-Copy-3" transform="translate(17.080869, 18.086477) rotate(-315.000000) translate(-17.080869, -18.086477) "></line>
                    <line x1="22.289838" y1="-6.66236524" x2="22.2689499" y2="42.339799" id="Line-3-Copy-3" transform="translate(22.279394, 17.838717) rotate(-585.000000) translate(-22.279394, -17.838717) "></line>
                </g>
                <g id="Group-3-Copy-138" transform="translate(1065.897091, 0.827046)">
                    <line x1="17.0708659" y1="-5.37934829" x2="17.0908715" y2="41.552302" id="Line-3-Copy-3" transform="translate(17.080869, 18.086477) rotate(-315.000000) translate(-17.080869, -18.086477) "></line>
                    <line x1="22.289838" y1="-6.66236524" x2="22.2689499" y2="42.339799" id="Line-3-Copy-3" transform="translate(22.279394, 17.838717) rotate(-585.000000) translate(-22.279394, -17.838717) "></line>
                </g>
                <g id="Group-3-Copy-139" transform="translate(1073.897091, 0.827046)">
                    <line x1="17.0708659" y1="-5.37934829" x2="17.0908715" y2="41.552302" id="Line-3-Copy-3" transform="translate(17.080869, 18.086477) rotate(-315.000000) translate(-17.080869, -18.086477) "></line>
                    <line x1="22.289838" y1="-6.66236524" x2="22.2689499" y2="42.339799" id="Line-3-Copy-3" transform="translate(22.279394, 17.838717) rotate(-585.000000) translate(-22.279394, -17.838717) "></line>
                </g>
                <g id="Group-3-Copy-140" transform="translate(1081.897091, 0.827046)">
                    <line x1="17.0708659" y1="-5.37934829" x2="17.0908715" y2="41.552302" id="Line-3-Copy-3" transform="translate(17.080869, 18.086477) rotate(-315.000000) translate(-17.080869, -18.086477) "></line>
                    <line x1="22.289838" y1="-6.66236524" x2="22.2689499" y2="42.339799" id="Line-3-Copy-3" transform="translate(22.279394, 17.838717) rotate(-585.000000) translate(-22.279394, -17.838717) "></line>
                </g>
                <g id="Group-3-Copy-141" transform="translate(1089.897091, 0.827046)">
                    <line x1="17.0708659" y1="-5.37934829" x2="17.0908715" y2="41.552302" id="Line-3-Copy-3" transform="translate(17.080869, 18.086477) rotate(-315.000000) translate(-17.080869, -18.086477) "></line>
                    <line x1="22.289838" y1="-6.66236524" x2="22.2689499" y2="42.339799" id="Line-3-Copy-3" transform="translate(22.279394, 17.838717) rotate(-585.000000) translate(-22.279394, -17.838717) "></line>
                </g>
                <g id="Group-3-Copy-142" transform="translate(1097.897091, 0.827046)">
                    <line x1="17.0708659" y1="-5.37934829" x2="17.0908715" y2="41.552302" id="Line-3-Copy-3" transform="translate(17.080869, 18.086477) rotate(-315.000000) translate(-17.080869, -18.086477) "></line>
                    <line x1="22.289838" y1="-6.66236524" x2="22.2689499" y2="42.339799" id="Line-3-Copy-3" transform="translate(22.279394, 17.838717) rotate(-585.000000) translate(-22.279394, -17.838717) "></line>
                </g>
                <g id="Group-3-Copy-143" transform="translate(1105.897091, 0.827046)">
                    <line x1="17.0708659" y1="-5.37934829" x2="17.0908715" y2="41.552302" id="Line-3-Copy-3" transform="translate(17.080869, 18.086477) rotate(-315.000000) translate(-17.080869, -18.086477) "></line>
                    <line x1="22.289838" y1="-6.66236524" x2="22.2689499" y2="42.339799" id="Line-3-Copy-3" transform="translate(22.279394, 17.838717) rotate(-585.000000) translate(-22.279394, -17.838717) "></line>
                </g>
                <g id="Group-3-Copy-144" transform="translate(1113.897091, 0.827046)">
                    <line x1="17.0708659" y1="-5.37934829" x2="17.0908715" y2="41.552302" id="Line-3-Copy-3" transform="translate(17.080869, 18.086477) rotate(-315.000000) translate(-17.080869, -18.086477) "></line>
                    <line x1="22.289838" y1="-6.66236524" x2="22.2689499" y2="42.339799" id="Line-3-Copy-3" transform="translate(22.279394, 17.838717) rotate(-585.000000) translate(-22.279394, -17.838717) "></line>
                </g>
                <g id="Group-3-Copy-145" transform="translate(1121.897091, 0.827046)">
                    <line x1="17.0708659" y1="-5.37934829" x2="17.0908715" y2="41.552302" id="Line-3-Copy-3" transform="translate(17.080869, 18.086477) rotate(-315.000000) translate(-17.080869, -18.086477) "></line>
                    <line x1="22.289838" y1="-6.66236524" x2="22.2689499" y2="42.339799" id="Line-3-Copy-3" transform="translate(22.279394, 17.838717) rotate(-585.000000) translate(-22.279394, -17.838717) "></line>
                </g>
                <g id="Group-3-Copy-146" transform="translate(1129.897091, 0.827046)">
                    <line x1="17.0708659" y1="-5.37934829" x2="17.0908715" y2="41.552302" id="Line-3-Copy-3" transform="translate(17.080869, 18.086477) rotate(-315.000000) translate(-17.080869, -18.086477) "></line>
                    <line x1="22.289838" y1="-6.66236524" x2="22.2689499" y2="42.339799" id="Line-3-Copy-3" transform="translate(22.279394, 17.838717) rotate(-585.000000) translate(-22.279394, -17.838717) "></line>
                </g>
                <g id="Group-3-Copy-147" transform="translate(1137.897091, 0.827046)">
                    <line x1="17.0708659" y1="-5.37934829" x2="17.0908715" y2="41.552302" id="Line-3-Copy-3" transform="translate(17.080869, 18.086477) rotate(-315.000000) translate(-17.080869, -18.086477) "></line>
                    <line x1="22.289838" y1="-6.66236524" x2="22.2689499" y2="42.339799" id="Line-3-Copy-3" transform="translate(22.279394, 17.838717) rotate(-585.000000) translate(-22.279394, -17.838717) "></line>
                </g>
                <g id="Group-3-Copy-148" transform="translate(1145.897091, 0.827046)">
                    <line x1="17.0708659" y1="-5.37934829" x2="17.0908715" y2="41.552302" id="Line-3-Copy-3" transform="translate(17.080869, 18.086477) rotate(-315.000000) translate(-17.080869, -18.086477) "></line>
                    <line x1="22.289838" y1="-6.66236524" x2="22.2689499" y2="42.339799" id="Line-3-Copy-3" transform="translate(22.279394, 17.838717) rotate(-585.000000) translate(-22.279394, -17.838717) "></line>
                </g>
                <g id="Group-3-Copy-149" transform="translate(1153.897091, 0.827046)">
                    <line x1="17.0708659" y1="-5.37934829" x2="17.0908715" y2="41.552302" id="Line-3-Copy-3" transform="translate(17.080869, 18.086477) rotate(-315.000000) translate(-17.080869, -18.086477) "></line>
                    <line x1="22.289838" y1="-6.66236524" x2="22.2689499" y2="42.339799" id="Line-3-Copy-3" transform="translate(22.279394, 17.838717) rotate(-585.000000) translate(-22.279394, -17.838717) "></line>
                </g>
                <g id="Group-3-Copy-150" transform="translate(1161.897091, 0.827046)">
                    <line x1="17.0708659" y1="-5.37934829" x2="17.0908715" y2="41.552302" id="Line-3-Copy-3" transform="translate(17.080869, 18.086477) rotate(-315.000000) translate(-17.080869, -18.086477) "></line>
                    <line x1="22.289838" y1="-6.66236524" x2="22.2689499" y2="42.339799" id="Line-3-Copy-3" transform="translate(22.279394, 17.838717) rotate(-585.000000) translate(-22.279394, -17.838717) "></line>
                </g>
                <g id="Group-3-Copy-151" transform="translate(1169.897091, 0.827046)">
                    <line x1="17.0708659" y1="-5.37934829" x2="17.0908715" y2="41.552302" id="Line-3-Copy-3" transform="translate(17.080869, 18.086477) rotate(-315.000000) translate(-17.080869, -18.086477) "></line>
                    <line x1="22.289838" y1="-6.66236524" x2="22.2689499" y2="42.339799" id="Line-3-Copy-3" transform="translate(22.279394, 17.838717) rotate(-585.000000) translate(-22.279394, -17.838717) "></line>
                </g>
                <g id="Group-3-Copy-152" transform="translate(1177.897091, 0.827046)">
                    <line x1="17.0708659" y1="-5.37934829" x2="17.0908715" y2="41.552302" id="Line-3-Copy-3" transform="translate(17.080869, 18.086477) rotate(-315.000000) translate(-17.080869, -18.086477) "></line>
                    <line x1="22.289838" y1="-6.66236524" x2="22.2689499" y2="42.339799" id="Line-3-Copy-3" transform="translate(22.279394, 17.838717) rotate(-585.000000) translate(-22.279394, -17.838717) "></line>
                </g>
                <g id="Group-3-Copy-153" transform="translate(1185.897091, 0.827046)">
                    <line x1="17.0708659" y1="-5.37934829" x2="17.0908715" y2="41.552302" id="Line-3-Copy-3" transform="translate(17.080869, 18.086477) rotate(-315.000000) translate(-17.080869, -18.086477) "></line>
                    <line x1="22.289838" y1="-6.66236524" x2="22.2689499" y2="42.339799" id="Line-3-Copy-3" transform="translate(22.279394, 17.838717) rotate(-585.000000) translate(-22.279394, -17.838717) "></line>
                </g>
                <g id="Group-3-Copy-154" transform="translate(1193.897091, 0.827046)">
                    <line x1="17.0708659" y1="-5.37934829" x2="17.0908715" y2="41.552302" id="Line-3-Copy-3" transform="translate(17.080869, 18.086477) rotate(-315.000000) translate(-17.080869, -18.086477) "></line>
                    <line x1="22.289838" y1="-6.66236524" x2="22.2689499" y2="42.339799" id="Line-3-Copy-3" transform="translate(22.279394, 17.838717) rotate(-585.000000) translate(-22.279394, -17.838717) "></line>
                </g>
                <g id="Group-3-Copy-155" transform="translate(1201.897091, 0.827046)">
                    <line x1="17.0708659" y1="-5.37934829" x2="17.0908715" y2="41.552302" id="Line-3-Copy-3" transform="translate(17.080869, 18.086477) rotate(-315.000000) translate(-17.080869, -18.086477) "></line>
                    <line x1="22.289838" y1="-6.66236524" x2="22.2689499" y2="42.339799" id="Line-3-Copy-3" transform="translate(22.279394, 17.838717) rotate(-585.000000) translate(-22.279394, -17.838717) "></line>
                </g>
                <g id="Group-3-Copy-156" transform="translate(1209.897091, 0.827046)">
                    <line x1="17.0708659" y1="-5.37934829" x2="17.0908715" y2="41.552302" id="Line-3-Copy-3" transform="translate(17.080869, 18.086477) rotate(-315.000000) translate(-17.080869, -18.086477) "></line>
                    <line x1="22.289838" y1="-6.66236524" x2="22.2689499" y2="42.339799" id="Line-3-Copy-3" transform="translate(22.279394, 17.838717) rotate(-585.000000) translate(-22.279394, -17.838717) "></line>
                </g>
                <g id="Group-3-Copy-157" transform="translate(1217.897091, 0.827046)">
                    <line x1="17.0708659" y1="-5.37934829" x2="17.0908715" y2="41.552302" id="Line-3-Copy-3" transform="translate(17.080869, 18.086477) rotate(-315.000000) translate(-17.080869, -18.086477) "></line>
                    <line x1="22.289838" y1="-6.66236524" x2="22.2689499" y2="42.339799" id="Line-3-Copy-3" transform="translate(22.279394, 17.838717) rotate(-585.000000) translate(-22.279394, -17.838717) "></line>
                </g>
                <g id="Group-3-Copy-158" transform="translate(1225.897091, 0.827046)">
                    <line x1="17.0708659" y1="-5.37934829" x2="17.0908715" y2="41.552302" id="Line-3-Copy-3" transform="translate(17.080869, 18.086477) rotate(-315.000000) translate(-17.080869, -18.086477) "></line>
                    <line x1="22.289838" y1="-6.66236524" x2="22.2689499" y2="42.339799" id="Line-3-Copy-3" transform="translate(22.279394, 17.838717) rotate(-585.000000) translate(-22.279394, -17.838717) "></line>
                </g>
                <g id="Group-3-Copy-159" transform="translate(1233.897091, 0.827046)">
                    <line x1="17.0708659" y1="-5.37934829" x2="17.0908715" y2="41.552302" id="Line-3-Copy-3" transform="translate(17.080869, 18.086477) rotate(-315.000000) translate(-17.080869, -18.086477) "></line>
                    <line x1="22.289838" y1="-6.66236524" x2="22.2689499" y2="42.339799" id="Line-3-Copy-3" transform="translate(22.279394, 17.838717) rotate(-585.000000) translate(-22.279394, -17.838717) "></line>
                </g>
                <g id="Group-3-Copy-160" transform="translate(1241.897091, 0.827046)">
                    <line x1="17.0708659" y1="-5.37934829" x2="17.0908715" y2="41.552302" id="Line-3-Copy-3" transform="translate(17.080869, 18.086477) rotate(-315.000000) translate(-17.080869, -18.086477) "></line>
                    <line x1="22.289838" y1="-6.66236524" x2="22.2689499" y2="42.339799" id="Line-3-Copy-3" transform="translate(22.279394, 17.838717) rotate(-585.000000) translate(-22.279394, -17.838717) "></line>
                </g>
                <g id="Group-3-Copy-161" transform="translate(1249.897091, 0.827046)">
                    <line x1="17.0708659" y1="-5.37934829" x2="17.0908715" y2="41.552302" id="Line-3-Copy-3" transform="translate(17.080869, 18.086477) rotate(-315.000000) translate(-17.080869, -18.086477) "></line>
                    <line x1="22.289838" y1="-6.66236524" x2="22.2689499" y2="42.339799" id="Line-3-Copy-3" transform="translate(22.279394, 17.838717) rotate(-585.000000) translate(-22.279394, -17.838717) "></line>
                </g>
                <g id="Group-3-Copy-162" transform="translate(1257.897091, 0.827046)">
                    <line x1="17.0708659" y1="-5.37934829" x2="17.0908715" y2="41.552302" id="Line-3-Copy-3" transform="translate(17.080869, 18.086477) rotate(-315.000000) translate(-17.080869, -18.086477) "></line>
                    <line x1="22.289838" y1="-6.66236524" x2="22.2689499" y2="42.339799" id="Line-3-Copy-3" transform="translate(22.279394, 17.838717) rotate(-585.000000) translate(-22.279394, -17.838717) "></line>
                </g>
                <g id="Group-3-Copy-163" transform="translate(1265.897091, 0.827046)">
                    <line x1="17.0708659" y1="-5.37934829" x2="17.0908715" y2="41.552302" id="Line-3-Copy-3" transform="translate(17.080869, 18.086477) rotate(-315.000000) translate(-17.080869, -18.086477) "></line>
                    <line x1="22.289838" y1="-6.66236524" x2="22.2689499" y2="42.339799" id="Line-3-Copy-3" transform="translate(22.279394, 17.838717) rotate(-585.000000) translate(-22.279394, -17.838717) "></line>
                </g>
                <g id="Group-3-Copy-164" transform="translate(1273.897091, 0.827046)">
                    <line x1="17.0708659" y1="-5.37934829" x2="17.0908715" y2="41.552302" id="Line-3-Copy-3" transform="translate(17.080869, 18.086477) rotate(-315.000000) translate(-17.080869, -18.086477) "></line>
                    <line x1="22.289838" y1="-6.66236524" x2="22.2689499" y2="42.339799" id="Line-3-Copy-3" transform="translate(22.279394, 17.838717) rotate(-585.000000) translate(-22.279394, -17.838717) "></line>
                </g>
            </g>
        </g>
    </g>
</svg>