<?xml version="1.0" encoding="UTF-8"?>
<svg width="90px" height="90px" viewBox="0 0 90 90" version="1.1" xmlns="http://www.w3.org/2000/svg" xmlns:xlink="http://www.w3.org/1999/xlink">
    <title>only_on_tag@1x</title>
    <defs>
        <polygon id="path-1" points="0 0 90 0 90 90 0 90"></polygon>
    </defs>
    <g id="Prod" stroke="none" stroke-width="1" fill="none" fill-rule="evenodd">
        <g id="Game_Spirits" transform="translate(-1183.000000, -197.000000)">
            <g id="only_on_tag" transform="translate(1183.000000, 197.000000)">
                <g id="Group-3">
                    <mask id="mask-2" fill="white">
                        <use xlink:href="#path-1"></use>
                    </mask>
                    <g id="Clip-2"></g>
                    <path d="M84.3579991,0 L84.3579991,0 L5.639769,0 C2.53043308,0 0,2.53151603 0,5.64357817 L0,23.2120761 C0,26.6911662 0.881606234,29.0468437 2.96844631,31.1289947 L58.8862747,87.0247011 C61.1167942,89.2575708 63.2594322,90 66.8500246,90 C67.1764421,89.9958134 84.3677637,89.9916267 84.3677637,89.9916267 C87.467335,89.9916267 89.9949782,87.4615063 89.9949782,84.346653 L90.000558,5.34353631 C90.000558,2.30125134 87.5747459,0 84.3579991,0" id="Fill-1" fill="#EC1A3B" mask="url(#mask-2)"></path>
                </g>
                <path d="M41.435214,44.349258 L41.435214,44.349258 C44.3883159,47.3022282 46.8238926,49.7374517 46.8238926,49.7374517 L47.2939896,50.2133321 C47.2939896,50.2244964 47.6413313,50.4896497 47.3944258,50.7534075 L46.3147371,51.827976 L40.7977234,46.3058101 L39.6162037,47.4920221 L45.1401921,53.0211657 L42.58465,55.5805926 L44.4496936,57.4436433 L49.3166622,52.5731963 C49.8830105,52.0331209 49.9722871,51.4553659 49.9583376,51.0785691 C49.9248589,50.2803182 49.37246,49.7709448 49.2636542,49.6802345 L49.3194521,49.7234963 L42.71438,43.1197842 L41.9945876,42.3996837 L31.7738141,32.1759315 C31.122374,31.5214216 30.05245,31.5158394 29.3954302,32.1759315 L25.4812101,36.0890357 C24.8227953,36.7463367 24.8283751,37.8167186 25.4812101,38.4684375 L31.0791307,44.0715449 L31.1474831,44.1343443 L32.5773033,45.5675676 L32.976258,45.9639019 L33.7295292,46.7202866 C34.3837591,47.3720054 35.4648427,47.3831697 36.1218625,46.7314509 L38.6648501,44.1706285 L32.0207196,37.5222589 L30.8322251,38.7070754 L35.6364211,43.5161185 L34.3279612,44.8167651 L27.3922869,37.8739359 L31.1795668,34.0836396 L40.677758,43.5886868 L41.435214,44.349258" id="Fill-4" fill="#FFFFFF"></path>
                <path d="M57.4355302,70.4615528 L57.4355302,70.4615528 L67.0620565,80.0908034 L68.3105337,78.8362097 C68.3105337,78.8362097 60.469539,71.0365167 60.5267318,71.0839652 L61.8407715,69.7721543 L67.4903051,75.4213146 L68.6760097,74.2406847 L61.175382,66.7354515 L57.4355302,70.4615528" id="Fill-6" fill="#FFFFFF"></path>
                <path d="M73.0274061,73.445504 L73.0274061,73.445504 L53.1033841,53.5171419 C52.4505491,52.8640275 51.3806251,52.8584454 50.7250002,53.5171419 L46.814965,57.4316416 C46.1579452,58.0833605 46.1579452,59.1565335 46.814965,59.8096479 L52.4114906,65.4113597 L52.4784481,65.4727636 L53.9054784,66.9059869 L54.3114079,67.3065079 L55.0618891,68.0601014 C55.7133292,68.7146113 56.7930178,68.7243801 57.4514326,68.0726613 L59.9944202,65.5160255 L53.3405251,58.8550961 L52.1562154,60.0427036 L56.9645963,64.8531423 L55.6617162,66.1593711 L48.721857,59.2165418 L52.506347,55.42485 L71.776139,74.7014932 L73.0274061,73.445504" id="Fill-8" fill="#FFFFFF"></path>
                <path d="M17.5654462,29.9984649 L17.5654462,29.9984649 C17.6854116,30.9502256 18.2113065,31.5977578 18.9073848,31.8824487 C19.5769592,32.1573708 20.1433075,32.1573708 21.1044257,31.1637438 L25.9323358,26.3267898 L24.0826366,24.4818812 L19.9689392,28.6210634 C19.7680669,28.8443504 19.398406,29.2364981 19.2840204,29.3034842 L18.2559448,19.2946458 C18.0885512,18.340094 17.6268239,17.7023306 16.9474849,17.3855422 C16.2528015,17.0547983 15.5636979,17.1831884 14.7504441,18.0972694 L9.93229859,22.9146858 L11.801527,24.779132 L16.2472217,20.3147881 C16.2583813,20.278504 16.449489,20.0928967 16.4969172,20.0454482 L17.5654462,29.9984649" id="Fill-10" fill="#FFFFFF"></path>
                <path d="M26.2223452,32.9277108 L26.2223452,32.9277108 C25.7745673,33.3756803 24.9097005,33.2319393 24.2861593,32.6067358 C23.6640132,31.9829279 23.5203337,31.1190864 23.9667166,30.6711169 C24.4144944,30.224543 25.2849411,30.3668884 25.9029024,30.9893008 C26.5278385,31.6089222 26.670123,32.4797414 26.2223452,32.9277108" id="Fill-12" fill="#FFFFFF"></path>
                <path d="M36.0489068,14.6469275 L36.0489068,14.6469275 C36.6110703,14.0901056 37.0588481,13.5960832 37.4006101,13.1690468 C37.7437669,12.7461971 37.9990421,12.3345118 38.1706206,11.9423641 C38.3380142,11.5474252 38.395207,11.1706285 38.3435939,10.8063916 C38.2850062,10.4449458 38.0938985,10.1044332 37.7730608,9.78066707 C37.348997,9.35502628 36.8914546,9.15127692 36.3976435,9.17500116 C35.9038324,9.20151649 35.3751476,9.40526585 34.8087993,9.79322696 C34.2410561,10.1853747 33.5951958,10.740801 32.8726135,11.4678792 C32.3495085,11.9939992 31.9017307,12.4796483 31.5306749,12.9359911 C31.1554342,13.3951249 30.87505,13.8305345 30.6797575,14.247802 C30.4900447,14.663674 30.4133227,15.0614039 30.4551711,15.4368051 C30.4956245,15.8205796 30.6797575,16.16807 30.9992002,16.4904405 C31.4204741,16.9118947 31.891966,17.1002931 32.4053064,17.0556357 C32.9214366,17.0123738 33.4724405,16.7862958 34.0569231,16.3801926 C34.6414057,15.9726939 35.3067952,15.3893567 36.0489068,14.6469275 M38.1748054,16.776527 L38.1748054,16.776527 C36.8830849,18.0688003 35.5258019,18.9019398 34.1043513,19.277341 C32.6870856,19.6527422 31.2600552,19.1224357 29.8232603,17.690608 C29.0685942,16.9314323 28.5789679,16.16807 28.3585664,15.3893567 C28.1353749,14.6134344 28.1214254,13.8710053 28.3069533,13.1620691 C28.4910863,12.4573196 28.8007644,11.7818765 29.2387777,11.1455087 C29.6753959,10.5119319 30.1803666,9.90766153 30.7467149,9.34386193 C31.3116683,8.77448016 31.9101003,8.28743546 32.544801,7.86319021 C33.1808967,7.44452714 33.8462862,7.15146299 34.5423645,6.9979532 C35.2370479,6.83886124 35.9596302,6.87793646 36.7115064,7.11378332 C37.4619877,7.35381681 38.2082841,7.84225706 38.9503957,8.58189515 C39.9170937,9.54761129 40.4583329,10.5217007 40.5782984,11.5013723 C40.6968688,12.4810439 40.5252904,13.4048937 40.0691429,14.2687352 C39.6129953,15.1325766 38.9796896,15.9699028 38.1748054,16.776527" id="Fill-14" fill="#FFFFFF"></path>
                <polygon id="Fill-16" fill="#FFFFFF" points="42.2004817 29.8746802 42.2004817 29.8746802 40.5181762 28.1972368 43.1002223 18.7438247 37.0866076 24.7586175 35.0750946 22.7518258 43.9985679 13.8245337 45.7854944 15.6136205 43.3080693 24.7041913 49.087333 18.9182677 51.1253499 20.947388"></polygon>
                <polygon id="Fill-18" fill="#FFFFFF" points="49.1071412 36.7865284 49.1071412 36.7865284 43.9263096 31.6076662 52.8511778 22.6817695 54.9003543 24.7304275 47.1653756 32.4715077 50.2900559 35.6003163"></polygon>
                <polygon id="Fill-20" fill="#FFFFFF" points="64.0373939 33.8717961 64.0373939 33.8717961 55.6384205 37.265758 52.6127814 40.2954831 50.56221 38.2482207 53.5920339 35.214309 57.0696357 26.8982649 59.1955343 29.0222822 56.5130521 34.6923757 62.2825511 32.1162023"></polygon>
                <path d="M68.551999,47.1681165 L68.551999,47.1681165 C69.1127675,46.6057124 69.5647302,46.1130855 69.9023072,45.6874448 C70.246859,45.261804 70.5021343,44.8501186 70.6737127,44.4579709 C70.8452911,44.0630321 70.901089,43.6862353 70.8452911,43.323394 C70.7880983,42.9605526 70.6011755,42.6214355 70.2789428,42.2976694 C69.8506942,41.8706331 69.3931517,41.6724659 68.8993407,41.6975857 C68.4055296,41.7199144 67.8768448,41.9222682 67.3104965,42.3088338 C66.7441482,42.7023771 66.1024728,43.2564079 65.3743107,43.9834861 C64.8512057,44.5068149 64.4034278,44.9966507 64.033767,45.454389 C63.6571314,45.9107317 63.3767472,46.3475369 63.1870344,46.7634088 C62.990347,47.1792808 62.9150199,47.5770107 62.9568683,47.9538075 C63.0001116,48.3347909 63.1814547,48.6822812 63.4995025,49.0046518 C63.9221713,49.426106 64.3950582,49.618691 64.9070036,49.5712425 C65.4273186,49.5279806 65.9741377,49.300507 66.5586203,48.8957994 C67.1431029,48.4896962 67.8084924,47.9105457 68.551999,47.1681165 M70.6765026,49.2921338 L70.6765026,49.2921338 C69.3847821,50.5844071 68.028894,51.4231288 66.6060485,51.7929479 C65.1887828,52.1725357 63.7617524,51.6408336 62.3249575,50.2048193 C61.5702914,49.4470391 61.083455,48.6822812 60.8602636,47.9049635 C60.638467,47.1290413 60.6217277,46.3894032 60.8086505,45.6832581 C60.9927835,44.9729265 61.3038566,44.2988789 61.7460546,43.6653021 C62.1784881,43.0275387 62.6834587,42.4232684 63.2484121,41.8594688 C63.8133654,41.2928781 64.4131925,40.8002512 65.0506831,40.378797 C65.6825939,39.9615295 66.3479834,39.672652 67.0440617,39.5163511 C67.7387451,39.3586547 68.4669072,39.3949388 69.2173885,39.6293901 C69.9692647,39.8708192 70.7099813,40.3578639 71.4534878,41.1002931 C72.4187909,42.0646137 72.9600301,43.0373075 73.0799955,44.0169791 C73.198566,44.9980462 73.0269876,45.9205005 72.57084,46.7871331 C72.1146925,47.6481835 71.4827817,48.4896962 70.6765026,49.2921338" id="Fill-22" fill="#FFFFFF"></path>
                <polygon id="Fill-24" fill="#FFFFFF" points="74.7020394 62.3957296 74.7020394 62.3957296 73.0197338 60.7140996 75.60178 51.2634786 69.5881653 57.2796669 67.5766523 55.2686887 76.5001255 46.3400009 78.2870521 48.1276922 75.8110219 57.2196586 81.5944704 51.4337349 83.6255126 53.4684375"></polygon>
            </g>
        </g>
    </g>
</svg>