<?xml version="1.0" encoding="UTF-8"?>
<svg width="133px" height="36px" viewBox="0 0 133 36" version="1.1" xmlns="http://www.w3.org/2000/svg" xmlns:xlink="http://www.w3.org/1999/xlink">
    <title>site_logo</title>
    <defs>
        <polygon id="path-1" points="0 0 22.0680995 0 22.0680995 14.6908098 0 14.6908098"></polygon>
        <polygon id="path-3" points="0 34 133 34 133 0 0 0"></polygon>
    </defs>
    <g id="Prod" stroke="none" stroke-width="1" fill="none" fill-rule="evenodd">
        <g id="Home" transform="translate(-26.000000, -40.000000)">
            <g id="site_logo" transform="translate(26.000000, 40.000000)">
                <g id="Group-24">
                    <path d="M125.550416,8.85989444 L125.550416,11.8374145 L112.758488,11.8374145 L112.758488,14.4150518 L130.377747,14.4150518 L130.377747,17.5709129 L108.309315,17.5709129 L108.309315,8.85989444 L125.550416,8.85989444 Z M108.309315,6.26010295 L129.621432,6.26010295 L129.621432,3.30473708 L108.309315,3.30473708 L108.309315,6.26010295 Z" id="Fill-1" fill="#FFFFFF"></path>
                    <g id="Group-22">
                        <path d="M108.644001,3.30473708 L108.644001,6.28225712 L86.2417697,6.28225712 L86.2417697,14.615547 L101.636442,14.615547 L101.636442,11.8374145 L90.8694866,11.8374145 L90.8694866,9.06038965 L105.886001,9.06038965 L105.886001,15.7265785 C105.886001,16.9561347 105.269416,17.5709129 104.039572,17.5709129 L83.6390254,17.5709129 C83.2830472,17.5709129 82.8827103,17.414726 82.4380148,17.10346 C82.0077358,16.7933016 81.7925963,16.2073239 81.7925963,15.3488499 L81.7925963,5.52680003 C81.7925963,4.90426794 81.9777937,4.38586043 82.3492975,3.97157751 C82.7196922,3.52738646 83.2752844,3.30473708 84.017183,3.30473708 L108.644001,3.30473708 Z" id="Fill-2" fill="#FFFFFF"></path>
                        <path d="M76.4855265,3.20460025 C77.0788235,3.20460025 77.7009537,3.38958754 78.3541349,3.76066984 C78.9618486,4.14504463 79.2668143,4.70111422 79.2668143,5.42666319 L79.2668143,17.470776 L75.0172549,17.470776 L75.0172549,11.7372776 L62.4038706,11.7372776 L62.4038706,8.96025282 L75.0172549,8.96025282 L75.0172549,6.53769466 C75.0172549,6.41916987 74.9207748,6.3305532 74.7278147,6.27073695 C74.6390974,6.24193653 74.55038,6.21202841 74.4616627,6.18212028 L60.1792839,6.18212028 L60.1792839,3.20460025 L76.4855265,3.20460025 Z" id="Fill-4" fill="#FFFFFF"></path>
                        <path d="M60.3029337,3.20460025 L60.3029337,6.18212028 L37.9007025,6.18212028 L37.9007025,14.5154102 L53.2953747,14.5154102 L53.2953747,11.7372776 L42.5284195,11.7372776 L42.5284195,8.96025282 L57.5449341,8.96025282 L57.5449341,15.6264416 C57.5449341,16.8559979 56.9283488,17.470776 55.698505,17.470776 L35.2979583,17.470776 C34.9419801,17.470776 34.5416432,17.3145892 34.0969476,17.0033231 C33.6666687,16.6931648 33.4515292,16.1071871 33.4515292,15.2487131 L33.4515292,5.42666319 C33.4515292,4.8041311 33.6378355,4.28572359 34.0082303,3.87144067 C34.3786251,3.42724963 34.9353263,3.20460025 35.6761159,3.20460025 L60.3029337,3.20460025 Z" id="Fill-6" fill="#FFFFFF"></path>
                        <path d="M26.1299109,8.53489281 C26.3672297,8.35765948 26.6455803,8.21698052 26.9649627,8.11285593 C27.283236,8.00983906 27.6214708,7.95777676 27.9763401,7.95777676 C28.3323183,7.95777676 28.6661172,8.00983906 28.9777367,8.11285593 C29.2893563,8.21698052 29.563271,8.35765948 29.8005899,8.53489281 C30.0379087,8.71323386 30.224215,8.92037532 30.357291,9.1574249 C30.490367,9.39447449 30.556905,9.64592428 30.556905,9.912882 C30.556905,10.1798397 30.490367,10.4312895 30.357291,10.6683391 C30.224215,10.9053887 30.0379087,11.109207 29.8005899,11.2797941 C29.563271,11.4503812 29.2893563,11.5866293 28.9777367,11.6907539 C28.6661172,11.7948785 28.3323183,11.8458331 27.9763401,11.8458331 C27.6214708,11.8458331 27.283236,11.7948785 26.9649627,11.6907539 C26.6455803,11.5866293 26.3672297,11.4503812 26.1299109,11.2797941 C25.8925921,11.109207 25.7073947,10.9053887 25.5743187,10.6683391 C25.4412428,10.4312895 25.3735958,10.1798397 25.3735958,9.912882 C25.3735958,9.64592428 25.4412428,9.39447449 25.5743187,9.1574249 C25.7073947,8.92037532 25.8925921,8.71323386 26.1299109,8.53489281 Z" id="Fill-8" fill="#B5170F"></path>
                        <g id="Group-12" transform="translate(0.000000, 2.779573)">
                            <mask id="mask-2" fill="white">
                                <use xlink:href="#path-1"></use>
                            </mask>
                            <g id="Clip-11"></g>
                            <path d="M17.6189262,10.9330814 L17.6189262,0.178341044 L22.0680995,0.178341044 L22.0680995,12.7774158 C22.0680995,13.1329902 21.9416774,13.4741643 21.689942,13.7998306 C21.4670397,14.0811885 21.2230671,14.2960839 20.9558062,14.4434091 C20.1839655,14.6959666 19.443176,14.7546752 18.7312195,14.6217502 C17.989321,14.5176256 17.3073066,14.2739298 16.6840674,13.8884473 C16.1062959,13.4586564 15.5196527,13.0299733 14.9274646,12.6001824 C14.3341676,12.1703916 13.7076015,11.6996156 13.0477665,11.188962 C12.3868225,10.6772008 11.6870647,10.125562 10.9451661,9.53293803 C9.44695244,8.36319802 8.02303953,7.25216655 6.67342737,6.19984362 C5.30939864,5.1630286 4.50872487,4.45187985 4.27140605,4.06639734 L4.27140605,14.4434091 L-0.000332689933,14.4434091 L-0.000332689933,2.04482961 C-0.000332689933,1.55633023 0.2148068,1.11878543 0.64508578,0.733302926 C1.10419789,0.363328338 1.57218173,0.119632501 2.04681936,0 C2.224254,0 2.42830382,0.00775395843 2.65896884,0.0221541669 C2.88852489,0.0376620838 3.14358718,0.0598162507 3.42637362,0.0897243761 C3.97420304,0.163940835 4.44107792,0.319020004 4.82699824,0.55606959 L17.6189262,10.9330814 Z" id="Fill-10" fill="#B5170F" mask="url(#mask-2)"></path>
                        </g>
                        <mask id="mask-4" fill="white">
                            <use xlink:href="#path-3"></use>
                        </mask>
                        <g id="Clip-20"></g>
                    </g>
                </g>
                <text id="GAMES" font-family="UTM-Nokia, UTM Nokia" font-size="11.088" font-weight="normal" letter-spacing="0.734799981" fill="#FFFFFF">
                    <tspan x="66" y="34">GAMES</tspan>
                </text>
                <path d="M58.7295678,29.5937322 C58.9584938,29.411396 59.2270004,29.2666667 59.5350877,29.1595442 C59.8421053,29.0535613 60.1683783,29 60.5106975,29 C60.8540864,29 61.1760804,29.0535613 61.4766795,29.1595442 C61.7772786,29.2666667 62.0415062,29.411396 62.2704322,29.5937322 C62.4993582,29.777208 62.6790757,29.9903134 62.8074454,30.234188 C62.9358151,30.4780627 63,30.7367521 63,31.011396 C63,31.2860399 62.9358151,31.5447293 62.8074454,31.788604 C62.6790757,32.0324786 62.4993582,32.2421652 62.2704322,32.4176638 C62.0415062,32.5931624 61.7772786,32.7333333 61.4766795,32.8404558 C61.1760804,32.9475783 60.8540864,33 60.5106975,33 C60.1683783,33 59.8421053,32.9475783 59.5350877,32.8404558 C59.2270004,32.7333333 58.9584938,32.5931624 58.7295678,32.4176638 C58.5006418,32.2421652 58.321994,32.0324786 58.1936243,31.788604 C58.0652546,31.5447293 58,31.2860399 58,31.011396 C58,30.7367521 58.0652546,30.4780627 58.1936243,30.234188 C58.321994,29.9903134 58.5006418,29.777208 58.7295678,29.5937322 Z" id="Fill-8" fill="#B5170F"></path>
            </g>
        </g>
    </g>
</svg>